<svg xmlns="http://www.w3.org/2000/svg" width="5626" height="4455"><path fill="#fff" d="m2095 393 3.053.191c103.272 6.507 205.33 23.052 579.851 156.807l4.188 2c32.174 15.352 64.144 31.258 95.311 48.573 4.042 2.224 8.113 4.395 12.18 6.571a1519 1519 0 0 1 36.358 20.111 6075 6075 0 0 0 8.123 4.629c52.013 29.596 103.25 60.478 153.96 92.255q4.516 2.826 9.039 5.644a4175 4175 0 0 1 37.232 23.494q5.396 3.44 10.798 6.87a12911 12911 0 0 1 35.699 22.8q4.875 3.121 9.751 6.239c9.66 6.176 19.316 12.358 28.934 18.599a3402 3402 0 0 0 18.836 12.092 2933 2933 0 0 1 22.874 14.75 2301 2301 0 0 0 23.251 14.934c7.031 4.464 14.05 8.948 21.062 13.441 24.88 15.934 49.774 31.863 74.923 47.37a110 110 0 0 1 4.814 3.216l2.033 1.418 1.694 1.248c5.96 2.19 14.422-1.573 20.266-3.154l3.44-.922q4.749-1.277 9.495-2.565 3.072-.833 6.145-1.664c62.956-17.042 125.615-35.17 188.27-53.28 35.774-10.339 71.571-20.59 107.42-30.667l3.83-1.078C3685.71 806.64 3743.71 790.756 3802 776l2.084-.528C3879.77 756.314 3955.858 738.718 4244 699l2.905-.184c51.427-3.19 103.688-3.462 155.095.184l2.725.191C4490.537 705.292 4576.154 721.077 4820 844l1.92 1.469c8.009 6.145 15.777 12.552 23.437 19.126a806 806 0 0 0 5.006 4.237c14.782 12.468 28.517 25.955 42.2 39.606l2.001 1.993c6.699 6.678 13.332 13.335 19.436 20.569q2.18 2.412 4.375 4.813c3.824 4.241 7.474 8.593 11.063 13.035a496 496 0 0 0 5.75 6.96c8.09 9.668 15.708 19.599 23.092 29.815q2.56 3.533 5.138 7.053c76.838 105.277 76.838 105.277 73.582 132.324-2.733 11.503-9.368 21.118-18 29l-2.5 2.5-2.5 2.5-1.371 1.477c-5.338 5.617-11.454 10.229-17.577 14.941-2.923 2.254-5.835 4.522-8.748 6.789l-4.63 3.6A2726 2726 0 0 0 4968 1196.5c-31.745 24.974-63.98 49.29-96.762 72.887q-3.387 2.442-6.77 4.894a2351 2351 0 0 1-28.252 20.162 5133 5133 0 0 0-6.849 4.823c-31.633 22.264-63.82 43.828-96.367 64.734l-2.856 1.839c-34.928 22.48-70.37 44.06-106.144 65.161l-3.345 1.974c-13.083 7.705-26.264 15.218-39.53 22.604a1198 1198 0 0 0-11.687 6.594c-12.31 7.035-24.751 13.785-37.296 20.39l-5.794 3.054a573 573 0 0 0-10.884 5.9c-16.716 9.285-33.802 17.806-50.91 26.338a6762 6762 0 0 0-12.887 6.447c-18.8 9.42-37.656 18.642-56.783 27.377-4.155 1.904-8.29 3.847-12.427 5.79-24.986 11.692-50.276 22.624-75.686 33.36a5194 5194 0 0 0-7.712 3.27c-94.106 39.943-191.178 73.887-728.247 173.59-1.631.09-1.631.09-3.296.184-7.503.415-15.009.783-22.516 1.128l-3.12.15c-23.4 1.094-46.815 1.037-70.237 1.035q-6.84 0-13.679.02c-43.429.13-86.79-1.086-130.109-4.307l-2.867-.21c-77.929-5.826-155.34-16.475-231.988-31.688l-2.92-.578c-107.57-21.336-213.16-51.669-443.08-138.422l-2.636-1.098c-27.846-11.608-55.517-23.58-83.066-35.877l-6.42-2.86c-15.575-6.932-31.095-13.983-46.593-21.086a4467 4467 0 0 0-21.578-9.833 2895 2895 0 0 1-47.604-22.044l-4.505-2.136-2.22-1.052a2702 2702 0 0 0-20.753-9.701l-3.405-1.578-6.78-3.14a8361 8361 0 0 1-19.93-9.278 8461 8461 0 0 1-28.462-13.356 6718 6718 0 0 0-41.209-19.256q-6.47-2.997-12.937-6c-22.159-10.29-44.338-20.532-66.576-30.647l-7.265-3.307c-88.319-40.203-177.583-76.917-615.561-174.501l-2.633-.18A1421 1421 0 0 0 1589 1227l-2.605-.147c-19.912-1.09-39.834-1.054-59.77-1.04h-2.654c-25.873.01-51.697.105-77.512 2.007q-3.906.284-7.812.555c-99.118 7.026-197.298 25.684-292.265 54.893q-3.605 1.107-7.211 2.207c-49.656 15.196-98.36 33.271-146.171 53.525-.637.27-1.273.54-1.93.817a1809 1809 0 0 0-85.043 38.72 778 778 0 0 1-8.37 3.979c-26.475 12.429-52.549 25.879-78.114 40.082-3.824 2.108-7.672 4.171-11.518 6.24-11.236 6.049-22.377 12.244-33.414 18.648a1563 1563 0 0 1-5.273 3.043c-16.606 9.548-32.462 20.073-48.292 30.84q-7.003 4.762-14.012 9.511-4.15 2.821-8.293 5.653c-46.902 31.902-46.902 31.902-62.991 33.217l-2.516.234C631 1530 631 1530 628 1529a294 294 0 0 1-.25-6.562l-.14-3.692c.525-12.991 6.483-25.664 11.39-37.496l2.022-4.925c17.177-41.71 36.69-82.559 57.978-122.325l1.577-2.958c6.673-12.515 13.444-24.963 20.46-37.29 3.543-6.226 7.036-12.48 10.5-18.75a1541 1541 0 0 1 19.943-34.994c3.647-6.211 7.241-12.452 10.832-18.696 22.854-39.665 46.233-79.034 70.941-117.577 1.73-2.71 3.446-5.428 5.157-8.15 15.587-24.69 32.133-48.768 48.61-72.87l1.559-2.282c24.752-36.154 50.943-71.46 78.14-105.809a967 967 0 0 0 3.906-4.991c6.782-8.703 13.765-17.228 20.8-25.726 2.1-2.543 4.181-5.1 6.263-7.657 7.932-9.704 16.109-19.205 24.277-28.71q3.03-3.53 6.039-7.08a602 602 0 0 1 18.328-20.577A270 270 0 0 0 1052.5 833c5.023-5.796 10.277-11.385 15.5-17l1.816-1.958c7.323-7.886 14.704-15.677 22.403-23.198a137 137 0 0 0 6.004-6.559c4.342-5.012 9.017-9.671 13.715-14.347l2.591-2.604c4.397-4.39 8.863-8.608 13.575-12.656 3.284-2.906 6.329-6.046 9.396-9.178 4.338-4.43 8.755-8.656 13.451-12.705 3.611-3.163 7.07-6.488 10.549-9.795 5.395-5.13 10.858-10.144 16.5-15l1.698-1.462q2.43-2.085 4.864-4.163 6.633-5.668 13.212-11.397A732 732 0 0 1 1218 674l5.313-4.375c5.843-4.779 11.77-9.445 17.721-14.089q3.1-2.424 6.193-4.856c10.77-8.443 21.711-16.625 32.773-24.68l2.217-1.62c19.212-14.03 38.727-27.582 58.783-40.38l2.26-1.45c22.166-14.206 44.697-27.813 67.74-40.55l2.69-1.493c52.901-29.317 107.549-54.6 164.31-75.507l2.186-.806C1665.329 432.86 1753.589 412.37 1925 393l2.73-.187c55.4-3.75 111.872-3.363 167.27.187m-182.375 32.813-2.91.254C1810.111 434.811 1712.21 454.497 1489 539l-3.83 1.815c-15.86 7.52-31.479 15.326-46.81 23.884-2.877 1.586-5.783 3.106-8.698 4.618-11.802 6.129-23.223 12.908-34.662 19.683l-3.113 1.838c-44.073 26.057-86.549 54.895-126.812 86.532q-2.96 2.323-5.927 4.638a910 910 0 0 0-29.308 23.904 552 552 0 0 1-10.465 8.65c-4.763 3.876-9.309 7.95-13.828 12.106a311 311 0 0 1-6.485 5.77c-4.381 3.81-8.65 7.741-12.921 11.675a890 890 0 0 1-6.157 5.617 417 417 0 0 0-16.767 16.073c-2.636 2.656-5.302 5.213-8.155 7.635-7.943 6.78-15.312 14.376-22.058 22.34-2.881 3.195-5.947 6.196-9.004 9.222-4.194 4.156-8.29 8.313-12.105 12.824-2.676 3.073-5.481 6.02-8.27 8.989a265 265 0 0 0-13.45 15.542c-2.305 2.803-4.717 5.475-7.175 8.145-4.894 5.327-9.492 10.844-14 16.5l-1.93 2.328-1.695 2.11-1.477 1.808c-1.12 1.763-1.12 1.763-.546 3.977L1064 879c5.221-1.561 8.753-4.904 12.813-8.375a395 395 0 0 1 19.09-15.08c5.14-3.808 10.189-7.722 15.222-11.67 6.88-5.382 13.878-10.537 21.022-15.56 2.774-1.968 5.519-3.974 8.268-5.975 10.06-7.315 20.268-14.392 30.585-21.34l1.635-1.1c51.18-34.449 103.825-66.041 158.365-94.9l3.3-1.748A1021 1021 0 0 1 1379 681l4.195-1.973c79.524-37.38 161.999-67.496 443.055-120.777l2.51-.18c5.744-.403 11.49-.748 17.24-1.07l2.462-.147c20.237-1.173 40.512-1.04 60.775-1.038q6.09 0 12.179-.02c35.921-.12 71.718.906 107.522 3.955l3 .25c100.951 8.498 200.964 27.904 573.074 167.617q6.834 3.316 13.695 6.578c10.241 4.871 20.408 9.818 30.411 15.162 5.516 2.944 11.088 5.752 16.695 8.518 8.035 3.977 15.915 8.197 23.767 12.525 6.569 3.614 13.195 7.1 19.858 10.538 8.736 4.518 17.321 9.258 25.862 14.134 6.891 3.928 13.839 7.735 20.825 11.49 11.068 5.962 21.99 12.15 32.875 18.438l6.176 3.559q6.574 3.79 13.144 7.586a4932 4932 0 0 0 13.235 7.617c11.687 6.71 23.307 13.514 34.846 20.477 7.326 4.414 14.69 8.756 22.077 13.066 13.774 8.037 27.427 16.26 41.038 24.57 5.24 3.197 10.487 6.38 15.734 9.563l8.73 5.3 14.196 8.617a68242 68242 0 0 1 23.866 14.492 5748 5748 0 0 1 32.646 19.966c12.07 7.439 24.184 14.804 36.309 22.153A9016 9016 0 0 1 3067.5 992a20674 20674 0 0 0 28.744 17.47q8.91 5.406 17.81 10.827a3759 3759 0 0 0 44.574 26.71q5.115 3.025 10.224 6.06c23.279 13.824 46.676 27.438 70.148 40.933l2.784 1.601c13.262 7.62 26.587 15.123 39.945 22.574q4.94 2.758 9.876 5.52c14.868 8.304 29.832 16.41 44.861 24.417 3.566 1.902 7.123 3.822 10.679 5.743 11.933 6.444 23.9 12.786 36.077 18.763 6 2.954 11.924 6.035 17.833 9.167 9.409 4.979 18.928 9.7 28.508 14.34.835.405 1.67.81 2.53 1.229 80.477 39.062 162.588 74.56 701.72 209.896l2.726.234c6.816.576 13.636 1.064 20.461 1.516l3.925.264c26.684 1.763 53.321 2.1 80.057 2.054q4.976-.008 9.952-.01c30.583-.03 61.043-.286 91.52-3.077 2.623-.238 5.246-.463 7.87-.685A1321 1321 0 0 0 4386 1404l2.402-.269a1130 1130 0 0 0 196.848-40.168c.824-.246 1.649-.49 2.498-.744 17.158-5.132 32.832-12.42 48.877-20.319l6.198-3.041c20.447-10.044 40.822-20.23 61.177-30.459-3.923-1.308-6.818-.338-10.715.59l-4.887 1.116-2.626.607c-63.395 14.603-127.897 23.085-192.772 27.437l-2.67.18c-6.108.403-12.217.753-18.33 1.07l-2.767.147c-21.67 1.106-43.353 1.054-65.046 1.04h-2.892c-27.893-.01-55.735-.11-83.575-2.003-2.935-.199-5.87-.387-8.805-.575-99.153-6.413-197.426-21.994-293.915-45.609l-2.715-.662c-90.678-22.14-179.42-51.8-437.78-169.993q-4.506-2.416-9.017-4.822A8683 8683 0 0 1 3544 1106l-3.228-1.733A1972 1972 0 0 1 3497 1080l-3.313-1.887a9657 9657 0 0 1-21.201-12.116q-3.405-1.95-6.812-3.896c-12.856-7.341-25.609-14.828-38.24-22.548a1485 1485 0 0 0-27.059-16.116c-12.509-7.29-24.861-14.815-37.165-22.449-4.344-2.69-8.7-5.363-13.055-8.037a4795 4795 0 0 1-37.178-23.088 5718 5718 0 0 0-9.04-5.644 4178 4178 0 0 1-37.22-23.485c-4.57-2.916-9.143-5.824-13.717-8.734l-5.512-3.508-10.883-6.922a13734 13734 0 0 1-38.397-24.516q-4.875-3.12-9.751-6.238c-9.729-6.22-19.452-12.449-29.139-18.735-6.695-4.339-13.432-8.613-20.166-12.89A2040 2040 0 0 1 3122.5 848.5c-7.232-4.694-14.5-9.33-21.779-13.953a6596 6596 0 0 1-21.409-13.672 4468 4468 0 0 0-29.056-18.453q-3.405-2.147-6.807-4.3a6128 6128 0 0 0-32.27-20.263q-6.12-3.821-12.234-7.656c-10.683-6.698-21.397-13.337-32.18-19.874a2381 2381 0 0 1-18.004-11.038c-12.234-7.566-24.557-14.965-36.938-22.287l-4.061-2.402-2.007-1.187a2038 2038 0 0 1-15.467-9.268c-12.543-7.574-25.223-14.89-37.965-22.121a2621 2621 0 0 1-12.3-7.03c-16.572-9.52-33.252-18.83-50.023-27.996l-3.09-1.69A3459 3459 0 0 0 2766 634l-3.49-1.875c-44.51-23.902-89.542-46.853-135.664-67.497a1318 1318 0 0 1-13.1-5.964C2562.05 534.894 2508.902 514.193 2455 496l-2.679-.906c-95.23-32.188-193.28-54.936-344.821-70.781l-2.622-.185c-5.957-.414-11.916-.782-17.878-1.128l-2.438-.15c-19.212-1.152-38.458-1.037-57.697-1.035q-5.757 0-11.513-.02c-34.334-.122-68.518.96-102.727 4.017m-605.869 326.612a866 866 0 0 1-8.307 4.677c-64.163 35.784-124.78 77.97-181.645 124.426a1794 1794 0 0 1-4.769 3.874c-6.237 5.065-12.353 10.259-18.437 15.504a827 827 0 0 1-7.04 6c-7.683 6.492-15.08 13.238-22.378 20.16a371 371 0 0 1-6.7 6.208c-8.737 7.89-17.07 16.163-25.382 24.497q-3.631 3.638-7.272 7.266l-4.69 4.693-2.162 2.157a228 228 0 0 0-11.415 12.316c-2.56 2.95-5.255 5.77-7.934 8.61a266 266 0 0 0-13.512 15.605c-2.15 2.626-4.388 5.138-6.676 7.644-4.374 4.814-8.444 9.806-12.437 14.938l-2.535 3.156q-1.265 1.608-2.528 3.219l-2.347 2.96c-1.848 2.49-1.848 2.49-1.336 5.017L958 1047c4.48-1.434 7.077-3.69 10.438-6.937 4.902-4.644 10.005-8.878 15.347-13.004a342 342 0 0 0 11.278-9.121c5.525-4.634 11.193-9.054 16.935-13.413 2.305-1.755 4.6-3.523 6.897-5.29 10.154-7.802 20.4-15.413 30.92-22.714a1238 1238 0 0 0 6.947-4.88c11.94-8.426 24.028-16.612 36.238-24.641l2.188-1.44A1308 1308 0 0 1 1156 908l2.53-1.47c24.466-14.173 49.261-27.711 74.47-40.514q3.125-1.588 6.248-3.181c20.696-10.539 41.562-20.58 62.803-29.973q2.868-1.269 5.734-2.544A1389 1389 0 0 1 1491 764l2.429-.693C1576.952 739.532 1663.307 724.42 1750 719l2.511-.158C1857.322 712.337 1962.656 720.345 2463 875l1.919.882c30.67 14.112 60.949 29.008 91.15 44.092l5.71 2.849c13.775 6.874 27.51 13.81 41.1 21.048 2.808 1.494 5.621 2.978 8.434 4.461 46.725 24.646 46.725 24.646 68.006 36.775 7.17 4.074 14.41 8.004 21.681 11.893 10.157 5.436 20.215 11.025 30.227 16.723a1894 1894 0 0 0 15.056 8.457 1570 1570 0 0 1 30.697 17.57c7.125 4.172 14.305 8.235 21.52 12.25a1400 1400 0 0 1 27.27 15.61A2201 2201 0 0 0 2849 1081a2953 2953 0 0 1 29.067 16.783 4053 4053 0 0 0 21.808 12.655l3.27 1.884L2913 1118c12.643 7.282 25.281 14.57 37.875 21.938 11.538 6.745 23.138 13.38 34.75 19.997q6.286 3.584 12.566 7.178a6806 6806 0 0 0 59.472 33.655q9.043 5.059 18.052 10.177a1452 1452 0 0 0 29.307 16.18c6.86 3.7 13.649 7.509 20.416 11.375 8.858 5.052 17.827 9.847 26.91 14.484 6.765 3.466 13.438 7.078 20.101 10.735 10.836 5.936 21.787 11.621 32.801 17.218l2.95 1.503a9316 9316 0 0 0 51.13 25.815l5.453 2.74c16.246 8.166 32.609 15.996 49.131 23.584 4.277 1.97 8.54 3.964 12.805 5.96 50.67 23.645 102.253 45.372 154.781 64.548q3.768 1.377 7.534 2.759c59.18 21.666 119.399 40.14 180.511 55.534q3.655.923 7.308 1.859c95.525 24.365 193.324 39.977 329.747 49.654q2.565.114 5.132.235c20.548.949 41.077 1.074 61.643 1.06l2.563-.001c27.4-.011 54.715-.335 82.062-2.187l2.807-.184c94-6.183 186.647-22.84 420.318-113.004.865-.445 1.73-.89 2.62-1.35 1.182-.62 1.182-.62 2.388-1.255l2.059-1.079c1.897-1.183 3.257-2.53 4.808-4.128a201 201 0 0 0-17.441 4.469 7601 7601 0 0 1-7.47 2.238C4478.984 1426.335 4386.372 1440.736 3535 1282l-2.185-.939a2829 2829 0 0 1-69.837-31.148q-2.872-1.325-5.745-2.646c-16.008-7.364-31.916-14.92-47.765-22.616a3254 3254 0 0 0-12.757-6.155c-21.467-10.31-42.86-20.766-63.89-31.945-4.623-2.455-9.27-4.86-13.92-7.264a1470 1470 0 0 1-32.37-17.256q-5.736-3.149-11.5-6.25c-10.421-5.609-20.785-11.293-31.04-17.2a1259 1259 0 0 0-16.985-9.59c-11.058-6.147-21.986-12.48-32.85-18.961a1522 1522 0 0 0-23.093-13.467c-9.634-5.525-19.155-11.218-28.63-17.01a1481 1481 0 0 0-27.058-16.116c-11.57-6.74-22.994-13.688-34.379-20.738A1148 1148 0 0 0 3065 1033c-8.768-5.233-17.466-10.577-26.156-15.937q-10.65-6.568-21.344-13.063a5050 5050 0 0 1-27.798-17.032 4010 4010 0 0 0-21.515-13.155 2495 2495 0 0 1-21.374-13.125c-11.086-6.883-22.241-13.647-33.402-20.407q-6.154-3.73-12.298-7.476a3812 3812 0 0 0-41.84-25.123l-3.793-2.245-1.87-1.107a2895 2895 0 0 1-15.308-9.148 2399 2399 0 0 0-15.74-9.37l-2.795-1.65A5636 5636 0 0 0 2787 865l-3.189-1.853a2796 2796 0 0 0-41.725-23.745 2153 2153 0 0 1-14.794-8.343c-10.724-6.092-21.527-12.023-32.386-17.871-4.76-2.565-9.504-5.156-14.244-7.757-11.062-6.066-22.217-11.936-33.42-17.738a942 942 0 0 1-7.038-3.712c-14.312-7.612-28.799-14.872-43.298-22.12q-4.32-2.161-8.64-4.33c-18.942-9.516-37.98-18.73-57.266-27.531l-5.204-2.389c-87.633-40.165-178.142-74.52-1219.04 24.814M3774 815l-2.237.554c-69.216 17.152-137.863 36.314-206.455 55.79l-21.857 6.206C3396.177 919.363 3396.177 919.363 3330 936v3c2.222 1.53 4.393 2.83 6.75 4.125q2.355 1.338 4.703 2.684l2.662 1.519c4.91 2.846 9.75 5.81 14.595 8.767a6574 6574 0 0 0 10.914 6.644q10.597 6.437 21.255 12.771a544 544 0 0 1 15.512 9.572l3.141 1.991a374 374 0 0 1 5.86 3.8l2.674 1.69 2.311 1.503c7.338 2.612 16.876-1.576 24.053-3.511l4.058-1.082a4273 4273 0 0 0 11.057-2.97l7.059-1.899c53.29-14.318 106.355-29.452 159.427-44.557C3705.137 917.532 3784.336 895.39 4303 803l3.607-.17c95.121-4.405 191.45 2.313 542.393 144.17l2.077 1.644c7.953 6.307 15.676 12.777 23.08 19.723a234 234 0 0 0 6.495 5.78c4.431 3.872 8.604 7.965 12.758 12.13l2.337 2.334q2.428 2.428 4.853 4.858 3.685 3.691 7.379 7.373l4.744 4.748 2.2 2.194a230 230 0 0 1 11.545 12.445c2.393 2.766 4.905 5.417 7.407 8.083 4.482 4.812 8.696 9.769 12.813 14.899 4.236 5.11 8.784 9.939 13.312 14.789l1-2c-.85-1.917-.85-1.917-2.219-4.016l-1.552-2.508-1.729-2.726-1.778-2.832c-14.13-22.334-29.44-43.838-46.298-64.194-2.012-2.436-3.997-4.894-5.986-7.349-14.117-17.185-29.24-33.256-44.938-49l-1.553-1.561c-5.268-5.289-10.566-10.495-16.24-15.352-2.395-2.052-4.702-4.197-7.02-6.337-4.41-4.019-8.924-7.854-13.57-11.598a455 455 0 0 1-6.922-5.71c-32.63-27.31-68.774-50.642-106.195-70.817l-2.539-1.373C4628.203 770.653 4546.946 745.318 4459 733l-2.18-.298c-86.57-11.726-174.911-9.116-682.82 82.298m-2022-62-2.624.191c-99.1 7.233-196.265 26.195-383.376 90.809l-3.347 1.381c-45.96 19.05-91.533 40.003-135.04 64.176a877 877 0 0 1-8.011 4.361c-75.995 40.98-148.977 90.04-214.762 145.994a552 552 0 0 1-10.465 8.65c-4.765 3.877-9.311 7.953-13.832 12.11a297 297 0 0 1-6.418 5.703c-5.115 4.448-10.067 9.074-15.03 13.69a759 759 0 0 1-4.807 4.397c-8.715 7.935-17.09 16.186-25.41 24.53a3719 3719 0 0 1-6.812 6.805l-4.402 4.406-2.02 2.015a214 214 0 0 0-11.04 11.964c-1.634 1.852-3.341 3.59-5.104 5.318a117 117 0 0 0-6.758 7.23c-3.595 4.137-7.34 8.113-11.117 12.082-5.844 6.19-11.35 12.503-16.625 19.188l-2.25 2.754-2.187 2.684-1.934 2.37c-1.505 2.025-2.68 3.858-3.629 6.192.298 2.197.298 2.197 1 4 3.929-1.7 7.116-4.29 10.438-6.937l1.871-1.48c4.097-3.256 8.098-6.609 12.066-10.02 5.278-4.529 10.748-8.736 16.336-12.874 5.12-3.794 10.152-7.69 15.164-11.627 8.145-6.374 16.475-12.455 24.893-18.462 2.205-1.58 4.4-3.175 6.591-4.776 11.704-8.537 23.626-16.732 35.641-24.824l2.456-1.654A1531 1531 0 0 1 1086 1059l3.19-1.794c18.752-10.52 37.749-20.51 56.92-30.244q2.674-1.363 5.346-2.731c17.647-9.035 35.594-17.313 53.69-25.4 2.681-1.202 5.357-2.416 8.034-3.628 31.341-14.096 63.443-26.696 95.82-38.203l2.582-.918C1407.7 921.985 1507.558 898.325 1671 883l2.267-.128c19.216-1.079 38.431-1.073 57.67-1.06l2.556.001c24.744.01 49.437.1 74.121 2.003 2.557.197 5.114.386 7.672.575 104.727 7.83 207.739 28.397 564.018 159.012 3.807 1.78 7.615 3.56 11.426 5.332 22.118 10.285 44.003 20.988 65.8 31.933q4.863 2.437 9.728 4.868c15.4 7.7 30.786 15.411 45.974 23.523a796 796 0 0 0 7.881 4.12c10.059 5.214 20.058 10.515 29.986 15.971a1237 1237 0 0 0 16.588 8.928l2.034 1.075 4.132 2.183c11.182 5.909 22.28 11.924 33.26 18.203A499 499 0 0 0 2623.5 1169c8.021 4.164 15.888 8.572 23.742 13.043A1109 1109 0 0 0 2667 1193c8.354 4.53 16.64 9.17 24.902 13.863 7.832 4.441 15.709 8.798 23.598 13.137 8.696 4.783 17.37 9.599 26 14.5 9.777 5.551 19.612 10.996 29.46 16.418q1.857 1.02 3.712 2.043l1.856 1.022a5136 5136 0 0 1 18.972 10.517c19.676 10.938 39.36 21.855 59.197 32.499q9.988 5.362 19.928 10.813c20.101 10.996 40.368 21.693 60.731 32.195 4.506 2.325 9.01 4.651 13.486 7.035 14.577 7.755 29.338 15.142 44.106 22.525q4.467 2.233 8.93 4.475c18.297 9.19 36.67 18.124 55.285 26.653a930 930 0 0 1 11.13 5.223c61.782 29.332 125.362 54.95 189.707 78.082l2.233.804A2573 2573 0 0 0 3295 1497l2.682.92c104.665 35.871 212.177 63.781 321.318 82.08l3.084.52a1786 1786 0 0 0 184.666 21.23l2.868.18c6.459.397 12.92.744 19.382 1.07l2.728.147c21.424 1.126 42.868 1.04 64.314 1.038q6.35 0 12.7.02c28.81.093 57.495-.489 86.258-2.205l3.846-.23c7.037-.434 14.065-.948 21.091-1.52l3.127-.25c70.625-5.687 140.77-16.56 209.604-33.429q3.542-.866 7.085-1.725c35.39-8.624 70.75-17.439 103.385-33.924 6.73-3.378 13.578-6.518 20.4-9.704a3892 3892 0 0 0 11.08-5.21l3.737-1.761L4381 1513c-3.844-1.281-6.547-.363-10.348.59l-4.645 1.116-2.495.607c-69.633 16.882-141.075 26.1-212.512 30.687l-2.812.184c-54.122 3.495-109.072 3.24-163.188-.184l-3.069-.191c-101.308-6.371-201.367-22.748-299.931-46.809l-2.718-.662c-97.422-23.776-192.863-55.95-313.282-104.338l-2.291-.947c-37.537-15.526-74.707-31.94-111.549-49.05q-2.145-.996-4.293-1.99c-24.959-11.555-49.58-23.778-74.18-36.075l-2.322-1.161c-16.874-8.431-33.734-16.874-50.365-25.777l-3.675-1.956q-5.01-2.671-10.012-5.357l-1.772-.95q-6.271-3.365-12.541-6.737l-3.228-1.733c-11.715-6.294-23.366-12.687-34.929-19.258-7.316-4.157-14.668-8.248-22.03-12.322-12.238-6.78-24.394-13.694-36.528-20.657a5838 5838 0 0 0-12.36-7.07c-21.355-12.183-42.685-24.404-63.815-36.977a1776 1776 0 0 0-23.235-13.545c-9.565-5.49-19.04-11.113-28.481-16.813-7.414-4.466-14.886-8.82-22.394-13.125a1315 1315 0 0 1-25.5-15c-9.478-5.721-19.03-11.298-28.633-16.807-7.789-4.475-15.525-9.033-23.242-13.63-12.068-7.182-24.24-14.166-36.446-21.109-6.18-3.519-12.336-7.08-18.492-10.641a3375 3375 0 0 0-32.878-18.729 4028 4028 0 0 1-8.407-4.756c-20.77-11.775-41.63-23.38-62.644-34.715a1725 1725 0 0 1-11.266-6.133c-12.785-7.02-25.683-13.798-38.638-20.499a1376 1376 0 0 1-9.677-5.079A3278 3278 0 0 0 2538 949l-3.271-1.714C2500.295 929.27 2465.407 912.022 2430 896l-4.205-1.91C2388.95 877.376 2351.78 861.49 2314 847l-2.504-.961c-93.639-35.88-190.118-63.916-394.184-92.289l-3.312-.252c-27.492-2.065-54.88-2.705-82.437-2.686l-2.513.001c-25.734.01-51.377.255-77.05 2.187m2578.184 78.054C4235.196 832.521 4141.087 846.136 3842 911l-2.002.513a5430 5430 0 0 0-94.834 25.186l-2.185.602c-35.233 9.702-70.375 19.721-105.505 29.791l-14.98 4.291-2.54.727-5.09 1.457q-16.35 4.681-32.699 9.367a31598 31598 0 0 1-55.482 15.849q-10.048 2.862-20.092 5.731c-5.048 1.44-10.096 2.88-15.145 4.311a5026 5026 0 0 0-13.719 3.911q-2.448.7-4.9 1.391-3.266.924-6.528 1.866l-3.646 1.038c-2.793.676-2.793.676-3.653 2.969l1.762.911c10.804 5.593 21.576 11.23 32.238 17.089 8.394 4.611 16.854 9.077 25.36 13.48 7.857 4.08 15.632 8.301 23.372 12.6l2.58 1.424 2.239 1.244L3549 1068l3.032 1.825c5.428 2.243 10.754-.004 16.148-1.528l3.811-1.018c3.546-.947 7.083-1.924 10.62-2.904 3.865-1.067 7.738-2.106 11.61-3.15a5469 5469 0 0 0 21.371-5.824c12.668-3.476 25.343-6.924 38.018-10.372 22.354-6.08 44.704-12.179 67.05-18.287 77.474-21.175 155.017-42.188 966.34-82.742l2.2.651c42.903 12.735 84.435 29.028 124.8 48.349l2.775 1.319c13.156 6.28 25.71 13.454 38.233 20.905 2.906 1.725 5.82 3.435 8.738 5.14a941 941 0 0 1 31.09 18.98l2.085 1.324q2.172 1.394 4.322 2.82l2.171 1.418 1.944 1.291 1.642.803 2-1-2.16-2.344c-8.696-9.45-8.696-9.45-12.34-13.656-9.793-11.27-19.805-22.204-31.484-31.55a320 320 0 0 1-8.167-6.898c-6.186-5.374-12.486-10.484-19.123-15.3-1.953-1.417-3.898-2.847-5.843-4.275C4756.816 918.525 4673.86 882.002 4358 831l-3.314-.05c-8.17-.108-16.332-.012-24.502.104M1658 916l-2.688.191c-98.99 7.05-197.842 25.38-434.312 113.809l-3.098 1.474a4054 4054 0 0 0-18.767 9.017c-3.192 1.537-6.391 3.06-9.592 4.58-11.695 5.558-23.261 11.275-34.67 17.397a1371 1371 0 0 1-8.335 4.402c-15.271 8.01-30.36 16.206-45.202 24.993-4.813 2.847-9.682 5.575-14.586 8.262-9.744 5.362-19.253 11.09-28.75 16.875-.99.6-1.98 1.202-3.001 1.82-23.31 14.157-46.228 28.953-68.687 44.43l-2.022 1.393A1354 1354 0 0 0 925 1208l-1.886 1.457a581 581 0 0 0-22.028 17.926c-2.842 2.424-5.739 4.774-8.649 7.117-5.068 4.123-9.865 8.492-14.652 12.934a270 270 0 0 1-7.035 6.254c-3.427 2.966-6.595 6.139-9.773 9.367-1.81 1.78-3.666 3.43-5.602 5.07-8.475 7.3-16.45 15.417-23.672 23.953-2.137 2.412-4.41 4.657-6.703 6.922-4.217 4.179-8.158 8.48-12 13l-2.559 2.895C799.434 1327.34 799.434 1327.34 792 1342l1 2c3.973-1.348 6.42-3.046 9.438-5.937 5.08-4.705 10.41-8.949 15.875-13.188a534 534 0 0 0 9.048-7.21c60.354-48.855 128.894-88.51 197.85-123.75l3.583-1.834c19.539-10.004 39.333-19.325 59.38-28.264 2.668-1.193 5.328-2.4 7.99-3.606 87.27-39.264 179.462-69.55 477.836-119.211l2.428-.142c19.903-1.145 39.83-1.102 59.76-1.108l2.738-.002c30.788-.014 61.375.729 92.074 3.252l5.5.438c103.696 8.38 205.565 31.313 478.294 128.608a3734 3734 0 0 0 8.38 3.607c17.691 7.598 35.287 15.404 52.826 23.347l2.09.945c19.068 8.63 38.037 17.425 56.862 26.577 3.81 1.848 7.63 3.675 11.453 5.498q5.745 2.743 11.487 5.493 2.94 1.408 5.884 2.809c25.283 12.045 50.297 24.638 75.34 37.172q7.37 3.688 14.744 7.37 8.117 4.054 16.23 8.115l6.786 3.391c12.134 6.062 24.22 12.194 36.199 18.557 5.26 2.79 10.586 5.44 15.925 8.073a959 959 0 0 1 23.777 12.21c6.357 3.367 12.781 6.59 19.223 9.79 7.046 3.501 14.057 7.049 21 10.75 9.874 5.26 19.893 10.226 29.918 15.19a820 820 0 0 1 20.473 10.501c13.158 6.978 26.507 13.583 39.832 20.236q5.64 2.816 11.277 5.64c15.938 7.979 31.913 15.857 48.016 23.498 3.959 1.888 7.9 3.812 11.84 5.74l2.206 1.079 4.38 2.143a2084 2084 0 0 0 45.144 21.416c4.447 2.049 8.881 4.124 13.316 6.198a2641 2641 0 0 0 67.531 30.41q4.956 2.148 9.903 4.316a2344 2344 0 0 0 174.62 68.308 2457 2457 0 0 1 11.164 3.9c109.845 38.596 223.923 67.626 533.924 110.528q3.624.219 7.246.459c57.348 3.715 116.182 3.87 173.518-.125 2.935-.204 5.87-.399 8.806-.594 71.044-4.77 141.534-14.26 211.261-28.718l2.935-.606c24.545-5.094 48.367-11.522 72.19-19.332l7.36-2.392q5.313-1.725 10.626-3.456A1627 1627 0 0 1 4136 1622v-1c-11.773-.093-23.482.11-35.238.75l-2.412.128c-22.546 1.214-45.02 3.339-67.501 5.393-41.56 3.796-82.903 6.123-124.643 5.987q-3.97-.012-7.94-.017c-29.79-.056-59.517-.564-89.266-2.241l-3.441-.191c-120.356-6.758-239.237-25.432-817.44-224.82a3180 3180 0 0 0-19.716-9.54c-15.483-7.451-30.895-15.012-46.072-23.072a1345 1345 0 0 0-16.98-8.81l-7.204-3.684c-11.941-6.107-23.846-12.251-35.588-18.738-6.304-3.48-12.666-6.833-19.059-10.145-10.297-5.34-20.484-10.865-30.654-16.444-5.022-2.746-10.06-5.46-15.096-8.181a2333 2333 0 0 1-27.219-14.963c-5.111-2.851-10.227-5.694-15.343-8.537l-3.46-1.923a7413 7413 0 0 0-23.52-13.005 4670 4670 0 0 1-31.9-17.73c-10.951-6.144-21.93-12.238-32.91-18.33q-5.043-2.8-10.086-5.606c-21.612-12.02-43.231-24.024-64.993-35.772a1366 1366 0 0 1-17.194-9.447c-10.51-5.87-21.125-11.546-31.733-17.239a4559 4559 0 0 1-10.029-5.409 2722 2722 0 0 0-39.752-21.054c-3.168-1.65-6.327-3.315-9.485-4.984A4970 4970 0 0 0 2468 1127l-2.743-1.442c-17.392-9.126-34.93-17.962-52.489-26.764l-5.376-2.702c-16.337-8.212-32.797-16.072-49.406-23.712-3.919-1.811-7.82-3.656-11.716-5.517-60.004-28.605-121.663-53.564-184.27-75.863l-2.394-.853c-95.69-34.017-194.841-57.59-345.481-73.835l-2.543-.184c-25.339-1.817-50.626-2.335-76.02-2.316l-2.368.001c-25.116.011-50.137.347-75.194 2.187m2569 29-2.945.369c-53.946 6.79-107.48 16.05-160.74 26.953q-4.847.99-9.695 1.977c-63.628 12.986-126.653 28.543-189.656 44.232a27219 27219 0 0 1-56.008 13.866q-16.65 4.112-33.298 8.236a13550 13550 0 0 1-28.6 7.054c-46.476 11.4-92.968 23.148-138.058 39.313l-3.738 1.339-3.543 1.31-3.127 1.153c-2.483 1.148-3.93 2.047-5.592 4.198v2l71.899 30.359 2.71 1.144 2.66 1.125q2.587 1.092 5.177 2.173a403 403 0 0 1 12.725 5.56l2.551 1.146q2.367 1.064 4.706 2.185c10.587 4.704 21.433.258 32.068-2.575l4.654-1.218q5.01-1.312 10.018-2.634c8.159-2.154 16.324-4.282 24.49-6.411l5.739-1.498c36.327-9.483 72.745-18.616 109.163-27.744l6.982-1.752c75.59-18.969 151.608-36.226 460.44-81.633q4.418-.335 8.834-.689c67.966-5.319 138.354-5.8 206.278.206 3.082.272 6.164.532 9.247.792 88.046 7.515 173.079 24.634 257.39 50.796 20.62 6.397 41.273 12.565 62.203 17.884 1.876.48 3.748.975 5.612 1.498 3.593.993 5.895 1.365 9.454.286-55.697-40.872-117.333-72.018-182-96l-1.996-.744C4644.875 960.17 4562.385 943.39 4412 934l-3.781-.066c-60.49-.946-121.228 3.549-181.219 11.066m141.588 97.816c-2.796.199-5.593.387-8.39.575-91.883 6.223-183.005 20.346-550.198 105.609l-2.254.613a7604 7604 0 0 0-28.535 7.822q-4.065 1.122-8.13 2.236a2867 2867 0 0 0-11.136 3.083l-3.344.913-3.015.847-2.628.728c-2.149.58-2.149.58-2.958 2.758 70.783 38.225 70.783 38.225 146.523 44.219l7.103-1.776 3.81-.956c76.357-19.155 153.31-36.102 519.376-88.675l3.39-.239c41.653-2.907 83.3-3.96 125.048-3.886l6.959.008c37.387.054 74.607.921 111.932 3.136q8.254.486 16.51.966l31.134 1.82 2.015.118q12.713.745 25.424 1.523c47.239 2.89 94.458 5.126 141.795 5.058 4.503-.006 9.006.012 13.51.034 3.55.015 7.1.016 10.65.013q2.499 0 4.999.015c2.276.013 4.55.006 6.827-.006l3.891.002c3.102-.101 3.102-.101 5.041-1.897L4935 1126c-3.251-1.78-6.481-2.801-10.048-3.793l-3.749-1.049-4.094-1.13q-2.148-.6-4.297-1.197a6024 6024 0 0 0-11.632-3.222l-7.311-2.022c-95.115-26.32-190.648-51.832-336.869-68.837l-2.628-.234c-33.457-2.937-66.985-3.879-100.557-3.774q-4.125.012-8.248.017c-25.693.047-51.34.223-76.979 2.057M4962 1059l1 2Zm-3403 14-2.713.199c-97.757 7.234-193.154 26.718-427.287 109.801l-1.907.845c-39.657 17.572-78.903 36.46-116.558 58.014-4.528 2.586-9.098 5.084-13.691 7.554-12.128 6.522-23.943 13.504-35.698 20.673a1489 1489 0 0 1-9.033 5.441c-14.148 8.527-27.932 17.562-41.676 26.723l-2.69 1.792c-9.093 6.062-18.142 12.179-27.075 18.474l-2.036 1.434c-11.14 7.9-21.584 16.592-31.89 25.538-3.462 2.998-6.948 5.967-10.43 8.941a728 728 0 0 0-8.968 7.794c-11.897 10.497-24.298 20.117-37.74 28.569-3.733 2.318-3.733 2.318-5.608 6.208l2 3 1.686-1.003c26.468-15.728 53.206-30.84 80.548-45q5.69-2.949 11.344-5.962c13.777-7.318 27.8-13.98 41.989-20.459a992 992 0 0 0 9.585-4.467c31.354-14.741 63.418-27.932 95.848-40.109l2.498-.94c100.367-37.693 204.365-65.051 390.476-89.796q4.298-.377 8.593-.769c63.446-5.63 128.989-4.718 192.433.505l6.703.536c31.22 2.53 62.3 5.965 93.297 10.464l2.718.394c44.948 6.552 89.572 15.134 133.685 25.969q3.9.955 7.804 1.905c60.957 14.884 121.012 33.798 179.793 55.732l2.7 1.007c55.253 20.634 109.615 43.576 163.3 67.993l4.132 1.877A5269 5269 0 0 1 2276 1390l2.131 1.001c18.798 8.832 37.556 17.742 56.248 26.796 6.115 2.961 12.24 5.9 18.371 8.828a12767 12767 0 0 1 26.794 12.833q7.702 3.697 15.397 7.405a4133 4133 0 0 0 37.998 18.04 2559 2559 0 0 1 29.936 14.284c13.318 6.456 26.72 12.72 40.163 18.91q3.075 1.417 6.148 2.836c37.163 17.163 74.45 33.981 112.15 49.939q4.003 1.696 8.005 3.394c98.795 41.89 200.009 78.123 732.418 183.514 3.198.217 6.395.446 9.593.678 35.965 2.558 71.9 2.832 107.942 2.852q5.464.004 10.928.013c39.295.044 78.465-.973 117.651-4.018 3.193-.248 6.386-.483 9.58-.717 27.23-2.032 54.165-5.228 81.133-9.43q5.685-.88 11.37-1.75 11.024-1.693 22.044-3.408v-1l-2.296-.118c-80.289-4.15-160.286-10.02-499.704-70.882l-2.979-.743c-109.02-27.244-215.87-63.109-414.117-146.393l-5.97-2.706a3488 3488 0 0 1-87.238-40.981c-6.709-3.267-13.42-6.53-20.141-9.771-19.906-9.603-39.71-19.404-59.472-29.3q-6.251-3.129-12.507-6.251c-30-14.982-30-14.982-44.713-22.814-5.622-2.987-11.325-5.811-17.031-8.634-9.797-4.85-19.545-9.774-29.195-14.91-6.335-3.364-12.744-6.565-19.168-9.753a707 707 0 0 1-16.719-8.619c-8.102-4.303-16.285-8.43-24.513-12.488a604 604 0 0 1-15.279-7.835c-12.586-6.68-25.32-13.056-38.067-19.423l-7.152-3.578-14.906-7.45q-8.514-4.253-17.026-8.513-7.41-3.709-14.822-7.413-4.382-2.19-8.762-4.382c-14.175-7.093-28.402-14.06-42.722-20.855q-4.892-2.325-9.777-4.66c-20.45-9.757-40.98-19.317-61.65-28.596q-3.14-1.411-6.278-2.828c-36.869-16.619-74.114-32.417-111.796-47.104l-2.43-.947c-26.326-10.255-52.805-20.001-79.57-29.053l-2.828-.957c-97.953-33.095-198.826-57.157-336.172-70.043l-2.56-.184c-48.16-3.403-97.293-3.361-145.44.184m2871 78-4.87.237c-9.09.446-18.173.982-27.255 1.575l-3.965.254c-92.832 5.95-184.625 20.152-430.525 73.283q-3.44.938-6.883 1.867a1015 1015 0 0 0-11.564 3.222l-3.244.89c-5.568 1.634-9.041 3.092-12.694 7.672 6.56 1.522 13.124 3.031 19.698 4.492 17.357 3.9 34.375 8.577 51.406 13.701a3140 3140 0 0 0 21.298 6.303l2.094.613c43.49 12.717 82.732 20.165 127.126 8.57q4.1-1.068 8.204-2.119 2.184-.563 4.364-1.136c16.982-4.433 34.238-7.21 51.545-10.016q3.828-.621 7.655-1.247c87.22-14.237 174.624-26.07 292.915-36.54l3.62-.314 7.308-.633c153.123-13.008 153.123-13.008 358.528-56.757 6.032-2.016 11.887-3.56 18.179-4.525 2.044-.189 2.044-.189 3.06-1.392.04-1.666.043-3.334 0-5a291 291 0 0 0-14.074 2.016c-16.712 2.56-33.503 1.134-50.211-.658-26.544-2.79-53.107-3.398-79.774-3.965-6.13-.134-12.258-.285-18.386-.434-10.847-.262-21.693-.504-32.54-.736q-10.554-.23-21.107-.52c-37.144-.988-74.299-.89-111.453-.888q-9.842-.002-19.683-.02c-42.97-.079-85.844.062-128.772 2.205m407.175 59.87-2.454.322c-2.74.361-5.477.733-8.215 1.103q-2.963.394-5.927.786a9032 9032 0 0 0-16.356 2.189c-5.88.79-11.76 1.57-17.64 2.353a37426 37426 0 0 0-30.683 4.099q-16.23 2.175-32.464 4.34l-2.05.273-10.315 1.375q-36.675 4.89-73.347 9.796-35.097 4.695-70.196 9.38l-2.155.288-68.172 9.099-62.29 8.319a219991 219991 0 0 1-180.677 24.08l-2.284.303q-26.475 3.515-52.95 7.025c2.75 2.75 5.625 2.79 9.328 3.332l2.3.354c2.54.386 5.08.758 7.622 1.127l2.676.393c83.347 12.214 167.429 14.498 445.074-19.206l2.095-.479c27.3-6.272 54.163-14.246 80.592-23.521l2.992-1.037c20.629-7.433 40.345-17.248 59.894-27.109q4.51-2.274 9.025-4.534 4.394-2.203 8.785-4.41l3.232-1.622c5.214-2.632 10.35-5.328 15.385-8.288-3.815-1.272-6.931-.667-10.825-.13M2372 2844l3.284.8c60.271 14.712 119.724 32.004 178.716 51.2l3.43 1.115c34.76 11.31 69.232 23.355 103.57 35.885l5.95 2.167c70.134 25.572 139.477 53.294 208.477 81.772q4.035 1.664 8.069 3.324a18498 18498 0 0 1 79.398 32.939q10.767 4.491 21.536 8.978l3.099 1.29 12.27 5.113q14.926 6.215 29.846 12.444a8788 8788 0 0 0 59.976 24.772q5.593 2.288 11.184 4.582c28.65 11.753 57.356 23.34 86.195 34.619l2.934 1.148c29.58 11.579 59.238 22.926 89.066 33.852l2.842 1.043c92.17 33.82 185.644 63.486 516.39 123.744 2.767.213 5.532.438 8.297.666 63.884 5.177 129.62 5.103 193.471-.453l6.346-.536c100.108-8.572 198.313-28.831 505.654-144.464l3.208-1.517c16.07-7.623 32.003-15.528 47.922-23.46a6268 6268 0 0 1 6.499-3.233 1077 1077 0 0 0 41.003-21.49c5.446-2.99 10.944-5.884 16.43-8.8a1034 1034 0 0 0 32.22-17.928c2.93-1.695 5.868-3.374 8.808-5.052 14.437-8.258 28.7-16.77 42.884-25.451q5.536-3.384 11.096-6.73c10.642-6.413 21.15-12.99 31.517-19.84a573 573 0 0 1 13.97-8.952c9.666-5.986 19.1-12.284 28.506-18.672l4.907-3.325c17.807-12.077 35.477-24.325 52.874-36.987 2.17-1.574 4.35-3.136 6.531-4.696 9.999-7.157 19.814-14.53 29.574-22.008 4.472-3.424 8.973-6.805 13.489-10.171 6.695-5.002 13.28-10.131 19.831-15.32q2.66-2.099 5.329-4.184A1083 1083 0 0 0 4950 2885l5.375-4.375c4.639-3.793 9.218-7.652 13.782-11.534a586 586 0 0 1 10.53-8.716c4.401-3.579 8.611-7.323 12.801-11.145 2.507-2.225 5.081-4.325 7.7-6.418 6.072-4.908 11.707-10.247 17.386-15.601 3.006-2.83 6.082-5.558 9.215-8.246 2.581-2.294 5.088-4.66 7.6-7.03 20.683-19.492 20.683-19.492 36.119-19.193 3.171.328 5.088 1.164 7.492 3.258 3.399 5.098 2.646 11.061 2 17-2.879 11.864-7.702 23.192-12.375 34.438l-1.053 2.549c-14.104 34.115-29.616 67.862-47.148 100.36a1686 1686 0 0 0-5.131 9.657c-7.648 14.453-15.445 28.803-23.574 42.993a3023 3023 0 0 0-4.617 8.1c-8.554 15.055-17.23 30.032-26.102 44.903l-1.465 2.463c-20.535 34.505-41.877 68.55-63.74 102.228q-2.624 4.04-5.234 8.089c-7.389 11.453-14.87 22.843-22.373 34.22-.63.953-1.258 1.907-1.906 2.89-16.012 24.28-32.064 48.534-48.511 72.524-3.14 4.586-6.267 9.18-9.396 13.773q-10.17 14.92-20.375 29.813l-1.372 2.003c-6.53 9.534-13.12 19.025-19.725 28.508A2802 2802 0 0 0 4754.5 3369c-10.803 15.742-21.701 31.407-32.937 46.844-1.574 2.17-3.136 4.35-4.696 6.531-7.839 10.95-15.95 21.676-24.141 32.365a857 857 0 0 0-6.351 8.448c-8.642 11.55-17.554 22.889-26.69 34.051a635 635 0 0 0-10.185 12.823c-4.415 5.677-9.058 11.124-13.796 16.533a374 374 0 0 0-9.454 11.218c-3.533 4.364-7.237 8.528-11.02 12.675-2.225 2.507-4.325 5.081-6.417 7.7-4.907 6.07-10.243 11.702-15.594 17.378-2.882 3.061-5.665 6.192-8.41 9.375-3.954 4.5-8.057 8.867-12.134 13.254a3132 3132 0 0 0-5.14 5.555c-6.43 6.944-12.95 13.756-19.719 20.371-2.1 2.096-4.049 4.282-5.98 6.535-4.22 4.872-8.759 9.417-13.324 13.962a1509 1509 0 0 0-4.33 4.337c-4.637 4.64-9.34 9.133-14.32 13.402-3.276 2.891-6.307 6.023-9.362 9.143-4.338 4.43-8.755 8.656-13.451 12.705-3.611 3.163-7.07 6.488-10.549 9.795-5.395 5.13-10.858 10.144-16.5 15l-1.698 1.462q-2.43 2.084-4.864 4.163a2538 2538 0 0 0-15 12.938c-9.118 7.912-18.26 15.785-27.723 23.285q-3.114 2.47-6.211 4.96c-7.45 5.99-14.95 11.907-22.554 17.703-2.27 1.733-4.533 3.472-6.798 5.212-11.247 8.624-22.6 17.067-34.152 25.277l-2.143 1.533c-23.701 16.932-48.024 33.239-72.857 48.467l-3.12 1.922c-15.766 9.709-31.67 19.123-47.88 28.078l-2.755 1.525c-35.586 19.668-71.86 38.451-109.245 54.475l-2 .86c-83.7 35.97-170.543 63.067-507.295 103.458q-4.89-.008-9.778-.01c-32.42-.032-64.684-.559-97.02-3.083q-4.368-.336-8.737-.647c-99.47-7.206-198.55-25.535-552.17-147.578l-2.379-1.055c-21.09-9.363-42.055-18.918-62.775-29.078a891 891 0 0 0-8.665-4.158c-15.504-7.36-30.872-14.977-46.216-22.661q-5.28-2.644-10.565-5.28c-14.185-7.084-28.344-14.201-42.333-21.666a1988 1988 0 0 0-8.424-4.456c-27.043-14.255-53.902-28.833-80.643-43.646l-1.769-.98q-12.624-6.995-25.231-14.02l-3.154-1.756a3837 3837 0 0 1-39.536-22.349 3374 3374 0 0 0-22.06-12.52c-8.809-4.962-17.548-10.034-26.27-15.145a1381 1381 0 0 0-20.48-11.73c-8.82-4.961-17.58-10.02-26.313-15.131-10.61-6.209-21.261-12.346-31.914-18.482q-4.856-2.8-9.71-5.606a7088 7088 0 0 0-35.465-20.356 2323 2323 0 0 1-24.285-14.05c-11.171-6.545-22.458-12.87-33.767-19.172-4.859-2.716-9.702-5.46-14.546-8.203a7160 7160 0 0 0-36.5-20.5l-3.346-1.869c-12.312-6.87-24.644-13.705-37.029-20.443l-3.026-1.653-2.81-1.523-2.447-1.33L2262 3533l-2.186-1.165c-3.72-1.104-6.534-.342-10.174.624l-2.215.549c-2.442.609-4.879 1.24-7.316 1.87q-2.61.66-5.223 1.314a3002 3002 0 0 0-14.166 3.61c-5.01 1.283-10.023 2.548-15.036 3.817-28.565 7.238-57.09 14.631-85.607 22.057C2028.407 3589.54 1936.621 3613.2 1457 3700l-2.543.214c-46.027 3.83-92.276 5.465-138.457 4.786l-2.16-.03c-71.279-.995-142.521-9.279-211.84-25.97l-2.213-.53c-45.956-11.048-91.216-26.56-133.827-47.054a726 726 0 0 0-8.858-4.15c-12.89-5.993-25.256-12.681-37.554-19.803a377 377 0 0 0-6.775-3.795C895.52 3594.22 879.045 3583.365 863 3572l-2.202-1.558c-10.155-7.208-20.104-14.626-29.798-22.442l-2.852-2.297c-10.114-8.22-20.054-16.608-29.652-25.426a318 318 0 0 0-6.746-5.965c-3.149-2.732-6.08-5.62-9-8.593-1.691-1.661-3.44-3.19-5.25-4.719a228 228 0 0 1-25.031-25.312c-1.582-1.817-3.251-3.5-4.969-5.188-2.935-2.896-5.677-5.9-8.367-9.023a725 725 0 0 0-5.078-5.829c-6.78-7.726-13.297-15.595-19.575-23.733-1.61-2.084-3.232-4.158-4.855-6.231A1346 1346 0 0 1 674 3378l-1.695-2.375c-15.012-21.082-29.414-42.629-41.68-65.437l-1.265-2.318c-4.786-9.062-7.818-17.658-5.36-27.87 7.27-20.315 26.723-37.91 43.309-50.875 3.255-2.57 6.373-5.28 9.504-8a390 390 0 0 1 15.8-12.912c4.48-3.481 8.876-7.053 13.262-10.65 7.225-5.907 14.634-11.531 22.134-17.084a956 956 0 0 0 5.92-4.44c9.171-6.923 18.449-13.685 27.78-20.39q3.44-2.477 6.87-4.973c7.63-5.543 15.293-11.023 23.086-16.337 3.69-2.516 7.36-5.054 11.007-7.632 27.523-19.41 55.86-37.72 84.328-55.707l2.844-1.805c15.634-9.917 31.504-19.411 47.449-28.816 4.464-2.636 8.91-5.302 13.352-7.977 6.776-4.076 13.61-8.048 20.48-11.965l1.777-1.013c20.436-11.652 41.022-22.998 61.933-33.778a1043 1043 0 0 0 7.246-3.806c12.698-6.728 25.5-13.232 38.357-19.653l3.2-1.598c16.33-8.153 32.71-16.11 49.362-23.589l3.956-1.79A1856 1856 0 0 1 1287 2875l2.523-.887c43.293-15.207 87.089-28.491 131.477-40.113l2.694-.706c44.665-11.691 89.81-21.434 135.306-29.294l2.879-.497C1662.3 2786.229 1764.029 2778.44 2372 2844m-1014 46v1c11.712.507 22.873-.848 34.439-2.592 3.212-.484 6.426-.954 9.641-1.42a2060 2060 0 0 0 31.635-4.87c27.695-4.466 55.293-7.297 83.285-9.118l2.654-.173c28.723-1.857 57.448-2.986 86.233-2.995l7.207-.01q7.506-.009 15.012-.007 7.525 0 15.05-.02c33.002-.09 65.887.432 98.844 2.205l2.217.118c8.642.463 17.276 1.014 25.908 1.632l3.559.25c69.865 4.957 139.243 13.447 208.316 25l6.413 1.065c106.831 17.818 212.267 44.13 671.39 213.957q4.915 2.187 9.834 4.365c40.486 17.947 80.83 36.215 121.092 54.657q10.947 5.012 21.896 10.019l2.2 1.005c11.23 5.136 22.469 10.252 33.714 15.358a7821 7821 0 0 1 25.518 11.634l2.23 1.022a5295 5295 0 0 0 44.828 20.282 4417 4417 0 0 1 15.139 6.812 5838 5838 0 0 0 68.846 30.56l5.968 2.603c103.593 45.213 208.203 87.777 734.307 210.411l2.736.18c25.93 1.67 51.847 2.28 77.827 2.258l2.168-.001c25.34-.012 50.607-.445 75.894-2.187l2.783-.191c96.51-6.746 191.449-25.237 320.217-66.809l2.335-.785c47.613-16.04 94.285-35.692 139.665-57.215l2.76-1.296c14.231-6.688 28.315-13.68 42.39-20.691q2.978-1.484 5.96-2.964a1013 1013 0 0 0 39.535-20.747q3.084-1.705 6.178-3.396c15.906-8.706 31.57-17.753 47.12-27.075q4.172-2.498 8.354-4.98c13.026-7.75 25.885-15.762 38.703-23.851l3.003-1.89c30.666-19.325 60.637-39.858 89.95-61.176a624 624 0 0 1 7.531-5.399c7.95-5.603 15.696-11.446 23.414-17.364a948 948 0 0 1 17.914-13.358c7.359-5.376 14.458-11.007 21.493-16.797 3.345-2.748 6.752-5.393 10.195-8.016 7.015-5.353 13.848-10.918 20.675-16.507a1959 1959 0 0 1 4.829-3.934 978 978 0 0 0 16.165-13.478c3.37-2.86 6.771-5.674 10.206-8.456 5.702-4.642 11.242-9.46 16.785-14.29 3.09-2.69 6.201-5.357 9.32-8.015a628 628 0 0 0 17.07-15.086c2.778-2.533 5.603-5.005 8.438-7.472 7.547-6.609 14.918-13.413 22.297-20.207a249 249 0 0 1 3.646-3.24c8.541-7.508 16.526-15.586 24.564-23.625q3.842-3.833 7.694-7.655c11.066-11.027 21.053-22.053 29.811-35.035l-1-2-1.367.987-1.938 1.4-2.178 1.573-4.864 3.511c-4.02 2.902-8.038 5.807-12.048 8.724-11.123 8.085-22.388 15.955-33.693 23.783a1871 1871 0 0 0-8.33 5.823c-14.485 10.162-29.18 19.991-43.923 29.774a4792 4792 0 0 0-15.897 10.605c-17.134 11.468-34.318 22.828-51.762 33.82l-2.93 1.85c-33.164 20.924-66.82 41.053-101.07 60.15l-3.405 1.902a1612 1612 0 0 1-47.814 25.659c-3.362 1.74-6.707 3.51-10.05 5.284-19.663 10.434-39.655 20.114-59.888 29.39q-4.96 2.277-9.91 4.579C4462.967 3221.997 4411.915 3242.6 4360 3261l-2.625.931c-43.816 15.515-88.271 28.842-133.375 40.069l-2.578.645c-84.979 21.235-171.918 34.343-259.447 38.266q-2.869.13-5.738.264c-104.82 4.684-209.72-4.794-430.305-48.449a5211 5211 0 0 0-8.472-2.088c-88.01-21.678-174.584-49.981-259.554-81.454a2920 2920 0 0 0-15.933-5.84c-54.852-19.979-109.185-41.469-163.331-63.28l-8.8-3.542a22157 22157 0 0 1-98.14-39.788 40105 40105 0 0 0-23.564-9.604l-16.946-6.902a18991 18991 0 0 1-29.65-12.096c-92.574-37.883-185.495-75.045-279.542-109.132l-2.748-.997c-27.747-10.062-55.637-19.685-83.607-29.11q-3.7-1.25-7.398-2.505C2436.25 2895.171 2342.501 2869.094 1358 2890m257.763 9.026C1509.32 2900.282 1403.21 2911.284 1191 2964l-2.03.664c-50.512 16.313-50.512 16.313-96.97 41.336v1c9.043-.573 17.94-1.806 26.883-3.209q3.767-.59 7.537-1.17 5.448-.838 10.895-1.681c89.034-13.758 178.448-25.489 268.435-30.69l3.084-.18c28.655-1.638 57.283-2.28 85.978-2.258l2.365.001c27.984.012 55.88.558 83.823 2.187l3.352.191c111.577 6.395 222.28 22.04 704.123 168.754q3.94 1.646 7.88 3.288c38.912 16.238 77.467 33.242 115.756 50.896q4.39 2.022 8.78 4.039c6.374 2.933 12.743 5.88 19.109 8.832l3.587 1.663a3422 3422 0 0 1 50.267 23.818c4.917 2.374 9.844 4.728 14.771 7.081l5.719 2.735q4.177 1.997 8.355 3.99c29.974 14.295 59.834 28.849 89.477 43.82a860 860 0 0 0 19.022 9.313c11.803 5.593 23.5 11.387 35.177 17.236l2.634 1.32a33222 33222 0 0 1 21.74 10.904q9.437 4.736 18.876 9.464l2.62 1.312c11.637 5.825 23.313 11.546 35.075 17.115 6.307 2.99 12.542 6.12 18.772 9.266 10.535 5.317 21.103 10.55 31.767 15.604a1732 1732 0 0 1 17.797 8.578l2.334 1.14 2.371 1.158c13.832 6.758 27.69 13.43 41.676 19.866 7.761 3.576 15.464 7.258 23.15 10.992 13.358 6.475 26.86 12.608 40.389 18.715q7.443 3.366 14.861 6.785c81.771 37.63 164.98 72.193 1185.563 153.125l2.47-.766c81.57-25.365 161.955-58.598 241.95-102.807a831 831 0 0 1 7.97-4.341c13.716-7.396 27.202-15.147 40.61-23.086l2.616-1.546c21.819-12.92 43.213-26.502 64.384-40.454l1.855-1.22c21.784-14.34 43.063-29.433 64.145-44.78l2.353-1.711c11.039-8.045 21.891-16.298 32.641-24.724 2.86-2.232 5.746-4.428 8.631-6.628 6.977-5.354 13.778-10.92 20.589-16.483a869 869 0 0 1 7.099-5.704c9.14-7.298 18.122-14.774 27.034-22.347q3.237-2.745 6.482-5.482 4.09-3.456 8.171-6.921l1.74-1.473c7.331-6.217 14.53-12.544 21.588-19.07 2.857-2.627 5.765-5.186 8.695-7.73 7.607-6.645 15.025-13.504 22.462-20.337a2338 2338 0 0 1 4.382-4.007q3.722-3.4 7.43-6.815a2168 2168 0 0 1 3.288-3.02c12.69-11.657 24.857-23.835 37.027-36.03q4.342-4.349 8.693-8.69 3.399-3.393 6.793-6.792l3.206-3.204c5.25-5.24 10.435-10.496 15.248-16.146 2.51-2.922 5.18-5.697 7.823-8.499a265 265 0 0 0 13.523-15.62c2.082-2.543 4.252-4.962 6.477-7.38 4.52-4.966 8.634-10.192 12.746-15.496q2.853-3.677 5.79-7.289c12.462-15.33 23.658-31.465 34.494-47.977 1.494-2.272 3.002-4.535 4.513-6.796l2.52-3.816 2.183-3.293L4897 3040l-1-2-2.238 2.09c-4.955 4.599-9.924 9.114-15.2 13.347-4.184 3.366-8.145 6.895-12.062 10.563-4.76 4.459-9.665 8.638-14.754 12.723-3.01 2.495-5.885 5.115-8.746 7.777-4.632 4.31-9.421 8.35-14.352 12.32-2.62 2.158-5.14 4.393-7.648 6.68-4.243 3.862-8.623 7.508-13.082 11.117a615 615 0 0 0-9.418 7.883c-5.775 4.906-11.622 9.718-17.5 14.5q-2.595 2.124-5.187 4.25L4770 3146l-1.817 1.485a1545 1545 0 0 1-26.46 21.168 1833 1833 0 0 0-5.25 4.124 1877 1877 0 0 1-21.507 16.718 3252 3252 0 0 0-4.291 3.291c-10.624 8.16-21.316 16.194-32.206 23.995a899 899 0 0 0-11.67 8.546c-7.718 5.726-15.508 11.302-23.455 16.704a848 848 0 0 0-9.75 6.75c-11.62 8.146-23.342 16.078-35.289 23.737a1084 1084 0 0 0-6.59 4.275 1425 1425 0 0 1-103.807 61.64c-3.083 1.662-6.16 3.337-9.236 5.012-28.334 15.377-57.164 29.66-86.623 42.75a1440 1440 0 0 0-9.945 4.476c-87.27 39.561-179.186 70.856-458.792 122.517l-2.706.239c-33.855 2.954-67.652 3.954-101.624 3.891q-4.647-.008-9.295-.011c-31.656-.039-63.128-.624-94.687-3.307l-3.193-.264c-83.39-6.906-165.688-21.283-246.807-41.736l-2.82-.709c-74.361-18.727-147.2-42.632-219.111-69.16q-4.182-1.541-8.368-3.07c-81.426-29.772-161.122-64.32-297.255-124.703a9880 9880 0 0 0-17.61-7.924c-16.61-7.46-33.2-14.957-49.75-22.552-10.866-4.985-21.775-9.864-32.711-14.695-13.17-5.818-26.259-11.799-39.312-17.874a2935 2935 0 0 0-45.702-20.815c-4.469-1.992-8.931-3.998-13.394-6.003-44.95-20.193-89.978-40.232-135.325-59.518q-4.786-2.037-9.57-4.086c-71.485-30.613-144.082-58.584-217.567-84.023l-7.772-2.698c-48.455-16.82-97.361-32.266-146.733-46.17l-3.166-.892c-99.777-28.055-200.93-50.919-549.584-87.67l-3.027-.064c-16.826-.346-33.63-.544-50.46-.348m-178.054 100c-84.483.982-168.512 8.122-251.709 22.974l-2.592.46c-43.742 7.807-87.208 18.625-129.408 32.54l-2.317.76C1009.73 3069.51 965.58 3084.502 928 3108c3.951 1.486 7.548.58 11.557-.193l2.319-.425c2.57-.474 5.137-.96 7.704-1.446l5.527-1.025c5.02-.93 10.039-1.872 15.057-2.816 5.29-.992 10.583-1.975 15.875-2.96q15.112-2.813 30.222-5.644 16.932-3.17 33.867-6.322a67621 67621 0 0 0 47.435-8.854q5.754-1.076 11.508-2.149c8.62-1.607 17.24-3.221 25.853-4.868a7346 7346 0 0 1 11.706-2.223q2.736-.52 5.47-1.048c15.572-3.01 30.781-4.476 46.65-4.965q3.82-.15 7.641-.31c6.13-.245 12.259-.455 18.39-.648 3.705-.12 7.41-.26 11.115-.405 10.367-.395 20.731-.593 31.104-.699l3.226-.033c112.82-1.087 225.216 6.804 593.774 87.033l3.091.969c78.083 24.495 154.544 53.156 229.909 85.031l2.162.914c23.758 10.04 47.34 20.456 70.838 31.086l2.266 1.025c30.337 13.723 60.452 27.906 90.41 42.436q6.072 2.946 12.17 5.842c14.685 6.98 29.255 14.174 43.795 21.45l7.163 3.581q7.443 3.72 14.884 7.445 8.516 4.261 17.033 8.516 7.418 3.705 14.833 7.415 4.384 2.193 8.769 4.383c13.003 6.497 25.94 13.092 38.781 19.905 3.997 2.113 8.023 4.17 12.052 6.22l2.54 1.298q3.9 1.994 7.804 3.984c10.953 5.587 21.885 11.205 32.758 16.946a2428 2428 0 0 0 21.242 11.054 3193 3193 0 0 1 26.602 13.863A3837 3837 0 0 0 2541.5 3451c7.008 3.652 14.01 7.315 21 11a7173 7173 0 0 0 29.56 15.468l14.44 7.532 25.888 13.507q7.077 3.69 14.151 7.388a9375 9375 0 0 0 48.714 25.266c19.17 9.879 38.353 19.724 57.682 29.288a824 824 0 0 1 20.092 10.328c10.64 5.639 21.452 10.906 32.285 16.16a15688 15688 0 0 1 14.182 6.9 2060 2060 0 0 1 22.915 11.37c7.9 3.969 15.86 7.809 23.849 11.594q5.469 2.593 10.932 5.197c20.724 9.883 41.507 19.607 62.443 29.033q5.796 2.613 11.587 5.242c21.77 9.873 43.619 19.528 65.642 28.824l6.38 2.7c91.616 38.797 185.534 73.29 307.376 105.601q3.464.876 6.924 1.763c93.265 23.831 188.972 37.61 304.458 41.839l2.16.033c100.399 1.493 200.937-9.745 516.84-105.033l2.33-.97c35.497-14.792 70.291-31.113 104.784-48.102q2.686-1.32 5.373-2.638a876 876 0 0 0 37.29-19.43 531 531 0 0 1 12.292-6.541c11.096-5.743 21.853-12.015 32.61-18.367 3.487-2.05 6.986-4.077 10.489-6.1 13.504-7.816 26.75-15.882 39.758-24.508 4.304-2.854 8.668-5.588 13.074-8.282 9.7-5.973 18.969-12.588 28.279-19.146q3.646-2.567 7.303-5.12c16.45-11.513 32.54-23.508 48.418-35.796l1.822-1.408c12.815-9.926 25.308-20.252 37.647-30.762a471 471 0 0 1 10.031-8.267c5.383-4.378 10.443-9.059 15.512-13.79a245 245 0 0 1 6.988-6.273c4.54-3.933 8.939-8.016 13.338-12.105q3.34-3.103 6.707-6.176c11.837-10.86 23.147-22.257 34.492-33.625q4.354-4.361 8.717-8.714 3.405-3.4 6.805-6.805l3.214-3.212c5.256-5.246 10.45-10.503 15.252-16.174 1.584-1.814 3.255-3.503 4.975-5.189 2.97-2.925 5.707-5.986 8.426-9.145 2.088-2.371 4.23-4.684 6.386-6.993a291 291 0 0 0 14.344-16.55c2.676-3.21 5.488-6.262 8.344-9.312a256 256 0 0 0 12.656-14.621c2.723-3.345 5.527-6.613 8.344-9.879 5.1-5.92 10.077-11.93 15-18l4.25-5.187 2.25-2.754q1.974-2.416 3.953-4.828c6.713-8.173 13.275-16.433 19.662-24.863 3.783-4.975 7.673-9.848 11.635-14.68 4.36-5.326 8.592-10.713 12.688-16.247 3.409-4.6 6.899-9.14 10.374-13.691 6.32-8.281 12.61-16.583 18.83-24.94a362 362 0 0 1 2.994-3.929l1.645-2.143 1.51-1.948c1.487-2.201 2.044-4.144 2.209-6.79l-3.316 3.32a725 725 0 0 1-3.774 3.735l-2.285 2.258-2.148 2.113c-2.635 2.738-5.116 5.58-7.607 8.448-3.088 3.51-6.287 6.913-9.495 10.314l-2.095 2.226a524 524 0 0 1-14.855 15.124 124 124 0 0 0-7.488 8.017c-4.776 5.517-9.967 10.624-15.134 15.772a2175 2175 0 0 0-5.2 5.206c-5.135 5.139-10.281 10.178-15.812 14.894-3.257 2.86-6.26 5.978-9.291 9.073-4.338 4.43-8.755 8.656-13.451 12.705-3.611 3.163-7.07 6.488-10.549 9.795-7.585 7.212-15.41 14.089-23.375 20.875-4.157 3.549-8.27 7.132-12.312 10.813-4.164 3.777-8.47 7.336-12.84 10.87-3.31 2.72-6.548 5.513-9.785 8.317-5.75 4.964-11.646 9.7-17.645 14.36a575 575 0 0 0-8.846 7.043c-8.173 6.605-16.554 12.911-24.978 19.19a710 710 0 0 0-11.344 8.657c-30.77 23.741-63.46 45.242-96.375 65.875l-2.598 1.634c-13.953 8.769-28.112 17.158-42.402 25.366l-2.883 1.656C4370.104 3539.212 4290.55 3575.53 4163 3620l-2.156.703c-92.862 30.25-188.83 51.034-348.157 67.047l-2.85.18c-26.346 1.628-52.693 2.28-79.087 2.258l-2.041-.001c-101.232-.05-202.19-11.361-638.709-141.187-.848-.347-1.696-.694-2.57-1.05-58.533-23.968-116.203-50.025-173.43-76.95l-2.177-1.024a5097 5097 0 0 1-64.461-30.878 3813 3813 0 0 0-14.62-7.086c-15.933-7.689-31.804-15.49-47.6-23.459-6.679-3.364-13.376-6.678-20.138-9.872-17.44-8.253-34.66-16.953-51.907-25.598q-6.945-3.48-13.892-6.955-19.094-9.556-38.184-19.12-17.527-8.78-35.057-17.553-6.877-3.441-13.752-6.887c-25.633-12.854-25.633-12.854-51.464-25.302-5.292-2.505-10.52-5.131-15.748-7.766l-3.092-1.553c-.793-.4-1.587-.798-2.404-1.209-6.434-3.216-12.922-6.317-19.417-9.406a2564 2564 0 0 1-17.794-8.55 2380 2380 0 0 0-41.094-19.446q-7.418-3.429-14.804-6.922a1995 1995 0 0 0-46.433-21.23l-6.92-3.057a1869 1869 0 0 1-16.562-7.436c-96.183-43.66-194.872-82.109-938.771-211.665m-616.933 190.71c-10.293 5.171-20.972 9.295-31.776 13.264v1c4.208.03 8.417.047 12.625.063l3.547.025c13.58.037 26.1-1.066 39.231-4.494 4.06-1.055 8.131-2.058 12.202-3.063l2.584-.638c96.093-23.594 196.026-33.87 674.811 1.107l3.064.633c73.059 15.136 145.112 34.943 215.936 58.367l2.87.947c87.884 29.009 173.667 64.264 317.312 134.083l6.117 3.053c14.986 7.48 29.931 15.018 44.701 22.917l3.593 1.915q4.864 2.599 9.72 5.21l7.218 3.875 1.848.992c4.42 2.369 8.847 4.723 13.277 7.07 12.424 6.588 24.79 13.244 37.005 20.216 6.73 3.835 13.518 7.552 20.339 11.222 9.791 5.272 19.489 10.693 29.156 16.188 5.03 2.857 10.078 5.679 15.131 8.494a1567 1567 0 0 1 30.693 17.568c7.125 4.172 14.305 8.235 21.52 12.25 10.21 5.685 20.32 11.524 30.402 17.434A2878 2878 0 0 0 2363 3550.5a6319 6319 0 0 1 34.032 19.766q7.483 4.37 14.968 8.734 8.967 5.228 17.93 10.465a6482 6482 0 0 0 34.359 19.93q10.874 6.269 21.711 12.605c11.55 6.749 23.135 13.436 34.727 20.113q4.856 2.8 9.71 5.606c22.112 12.775 44.263 25.471 66.56 37.922a3268 3268 0 0 1 17.378 9.796c12.245 6.933 24.544 13.767 36.855 20.583l5.343 2.962a3396 3396 0 0 0 49.965 27.168 2914 2914 0 0 1 10.282 5.526c14.714 7.932 29.518 15.666 44.391 23.294l2.078 1.065 2.05 1.051c4.619 2.372 9.219 4.777 13.81 7.2 12.526 6.605 25.189 12.938 37.851 19.276l2.922 1.465a2125 2125 0 0 0 40.503 19.75 4413 4413 0 0 1 6.99 3.328 2129 2129 0 0 0 62.937 28.736q4.202 1.84 8.403 3.683c94.298 41.32 191.278 77.675 390.245 126.476l2.944.576c78.104 15.206 157.429 24.218 236.994 25.986l2.789.064c13.427.3 26.842.581 40.273.374l4.19-.054c89.858-1.223 178.56-12.298 265.81-33.946l2.45-.607c81.545-20.257 160.388-49.516 318.956-127.19 5.172-2.979 10.395-5.858 15.625-8.732 19.283-10.608 37.971-22.102 56.53-33.922 2.574-1.634 5.154-3.258 7.736-4.881 13.11-8.26 25.968-16.842 38.703-25.668l2.618-1.813c18.341-12.726 36.362-25.81 54.066-39.41q2.98-2.286 5.972-4.558c7.99-6.091 15.778-12.41 23.558-18.765a869 869 0 0 1 7.099-5.704c12.798-10.222 25.328-20.732 37.46-31.738a450 450 0 0 1 6.227-5.512c8.805-7.678 17.415-15.577 26-23.5l1.692-1.56c10.844-10.02 21.366-20.342 31.793-30.795q3.904-3.91 7.818-7.811l5.045-5.049 2.323-2.317a241 241 0 0 0 11.833-12.739c1.733-2.003 3.53-3.932 5.363-5.842l1.98-2.076c.67-.7 1.338-1.401 2.028-2.124 5.247-5.53 10.247-11.112 14.988-17.082 2.438-2.972 5.02-5.793 7.637-8.605a260 260 0 0 0 11.992-13.895 693 693 0 0 1 5.828-7.117c6.56-7.906 13.01-15.86 19.21-24.053 1.756-2.311 3.523-4.613 5.29-6.915 6.067-7.912 12.133-15.827 17.993-23.895l2.269-3.117c3.825-5.789 3.825-5.789 4.605-12.445L4644 3459l-1.25 1.285a190 190 0 0 1-11.46 10.707c-2.226 1.951-4.401 3.95-6.57 5.962-5.162 4.788-10.45 9.318-15.939 13.733-3.021 2.513-5.905 5.137-8.781 7.813-4.58 4.255-9.293 8.273-14.164 12.195-3.092 2.513-6.12 5.092-9.149 7.68-5.589 4.76-11.317 9.315-17.109 13.824a627 627 0 0 0-8.882 7.08c-7.167 5.79-14.479 11.365-21.868 16.868a996 996 0 0 0-13.105 9.908c-9.155 7.055-18.379 13.894-27.966 20.352a394 394 0 0 0-14.694 10.405c-6.221 4.612-12.588 8.939-19.063 13.188a2689 2689 0 0 0-4.148 2.773A1781 1781 0 0 1 4419 3633l-2.14 1.372c-23.862 15.273-48.178 29.727-72.86 43.628l-3.321 1.881c-17.925 10.148-36.12 19.694-54.488 29.007q-3.32 1.686-6.637 3.376c-20.599 10.485-41.375 20.436-62.497 29.82q-3.104 1.384-6.203 2.778c-31.495 14.163-63.438 27.225-95.854 39.138l-2.233.823c-88.58 32.619-180.065 56.946-364.892 80.865l-2.448.184c-17.601 1.312-35.222 2.19-52.865 2.69l-2.215.064c-89.903 2.492-179.576-5.068-634.347-129.626l-2.263-.927c-34.536-14.143-68.846-28.788-102.833-44.209l-5.97-2.706c-31.475-14.266-62.708-29.023-93.772-44.16a4100 4100 0 0 0-14.318-6.936c-17.345-8.372-34.613-16.894-51.844-25.5l-3.054-1.523c-10.94-5.458-21.834-10.988-32.639-16.71A609 609 0 0 0 2733 3588a881 881 0 0 1-21.082-10.828c-7.097-3.756-14.23-7.44-21.37-11.117-14.353-7.393-28.683-14.823-42.903-22.47l-7.02-3.773-1.788-.961c-9.801-5.267-19.666-10.402-29.561-15.49a1016 1016 0 0 1-25.89-13.803c-8.182-4.492-16.472-8.762-24.772-13.027-7.887-4.055-15.725-8.182-23.489-12.468-9.461-5.222-19.048-10.177-28.662-15.108-8.05-4.13-16.05-8.319-23.963-12.705-11.88-6.574-23.987-12.706-36.082-18.87a2092 2092 0 0 1-26.579-13.776 2262 2262 0 0 0-21.964-11.416l-2.084-1.072-11.18-5.746q-4.575-2.35-9.148-4.709c-21.8-11.244-43.681-22.323-65.617-33.3l-5.811-2.91c-15.142-7.585-30.337-15.045-45.636-22.309-4.447-2.117-8.875-4.273-13.305-6.424a2289 2289 0 0 0-42.219-19.933q-4.065-1.871-8.125-3.75c-34.349-15.886-68.884-31.317-103.75-46.035l-2.371-1.001c-65.066-27.452-131.194-52.304-198.32-74.244q-3.455-1.13-6.909-2.268c-102.436-33.64-208.01-57.265-519.235-93.398q-3.135-.13-6.268-.264c-100.885-4.218-202.906 1.543-537.12 94.91m-37.818 58.6c-2.65.899-5.303 1.782-7.958 2.664v1c5.6 1.158 11.113 1.22 16.807 1.31l3.307.061q5.494.097 10.988.18l3.893.063c32.977.525 65.955.574 98.935.571q8.64.002 17.279.02c36.716.077 73.402-.152 110.107-1.13l2.395-.064c104.454-2.784 208.662-10.278 319.255-26.009 5.823-.832 11.648-1.647 17.474-2.455a5131 5131 0 0 0 13.2-1.858q3.055-.432 6.111-.853c20.918-2.777 20.918-2.777 40.249-10.836l1-2c-13.52-2.674-27.034-5.055-40.687-6.937l-2.732-.38c-39.697-5.464-79.568-8.708-119.581-10.683l-2.257-.114c-109.515-5.486-220.263 4.329-487.785 57.45m710.815-19.773-2.013.396c-15.631 3.084-31.1 6.815-46.572 10.604-28.497 6.971-56.949 12.646-86 16.812l-4.02.58c-82.878 11.927-166.457 18.981-325.668 26.108l-5.717.18c-7.965.246-15.931.454-23.898.64q-5.085.12-10.168.257c-32.846.861-65.67.89-98.523.76q-8.494-.032-16.988-.058l-13.794-.047-3.476-.012c-13.01-.045-26.02-.1-39.029-.18a7236 7236 0 0 0-31.509-.127c-5.514-.01-11.027-.032-16.54-.08q-7.705-.065-15.41-.056-2.82-.005-5.638-.042a426 426 0 0 0-7.69-.013l-2.246-.055c-4.164.068-6.444.87-9.382 3.69-2.702 2.679-2.702 2.679-2.492 5.08l2.294.494c15.35 3.327 30.6 6.89 45.753 11.03l2.163.59q4.392 1.2 8.784 2.408c28.478 7.827 56.915 15.267 86.006 20.478l3.07.552c51.927 9.29 104.05 16.02 156.621 20.354l2.207.184c39.134 3.142 78.3 4.254 117.549 4.17 5.405-.01 10.81-.004 16.214.008 29.162.052 58.221-.668 87.339-2.268l2.152-.118c8.372-.463 16.736-1.014 25.098-1.632l3.446-.25c78.798-5.782 157.092-16.818 234.577-32.195l2.227-.442c34.553-6.862 68.702-15.177 102.839-23.847a5402 5402 0 0 1 19.034-4.785c7.725-1.93 15.446-3.872 23.167-5.818q3.282-.826 6.566-1.648c4.016-1.006 8.028-2.025 12.04-3.047l3.623-.904 3.267-.839 2.85-.721c2.298-.545 2.298-.545 3.114-2.754l-2.147-.604q-5.304-1.5-10.603-3.021l-2.059-.59a803 803 0 0 1-26.324-8.043l-2.63-.855-2.67-.869a1094 1094 0 0 0-104.747-28.398 539 539 0 0 1-7.445-1.702c-15.815-3.56-30.823-2.516-46.602.644M1695.36 3309l-2.606.751a1000 1000 0 0 0-12.64 3.725c-14.75 4.416-29.732 7.631-44.795 10.767q-3.251.679-6.503 1.362a7247 7247 0 0 1-34.622 7.177c-75.897 15.564-152.442 28.338-420.818 50.386l-6.862.01q-7.144.009-14.29.007-7.18 0-14.36.02c-29.685.084-59.234-.316-88.863-2.205l-3.687-.23c-6.923-.438-13.837-.95-20.75-1.52l-3.069-.249c-63.538-5.198-124.456-17.155-186.312-32.056-19.625-4.727-39.272-9.278-59.04-13.383l-2.386-.496a987 987 0 0 0-4.27-.876 104 104 0 0 1-9.21-2.314c-3.784-1.012-6.47-.653-10.276.124 3.246 2.678 6.512 5.039 10.113 7.215l2.992 1.808 3.207 1.914 3.378 2.017c67.682 40.21 141.77 69.205 392.622 114.796l2.486.18c5.732.406 11.465.758 17.202 1.07l2.687.147c19.867 1.037 39.737 1.055 59.626 1.04h2.574c26.189-.01 52.314-.227 78.453-2.007 2.81-.19 5.619-.372 8.428-.555 81.405-5.354 162.152-17.755 553.673-104.562l3.001-.856a810 810 0 0 0 5.3-1.542 431 431 0 0 1 5.855-1.669L1904 3348l1-3-3.312-.559c-27.109-4.93-51.805-17.75-76.605-29.259-49.728-23.05-78.295-21.066-129.724-6.182m238.93 63.864-2.615.642c-2.876.71-5.747 1.436-8.62 2.162q-3.07.762-6.14 1.52a4889 4889 0 0 0-13.152 3.277 6833 6833 0 0 1-24.381 6.052l-7.08 1.749q-5.355 1.323-10.709 2.65c-91.808 22.729-183.98 43.771-339.203 72.542q-5.288.847-10.575 1.703c-68.917 11.095-138.314 19.146-208.046 22.698q-2.742.14-5.485.288c-19.563 1.036-39.13 1.04-58.715 1.038q-5.59 0-11.18.02c-33.9.123-67.678-.933-101.45-4.017l-2.849-.255c-71.403-6.413-142.12-19.944-210.089-42.933l-6.645-2.207c-44.86-15.054-87.37-35.716-128.938-58.19q-2.686-1.45-5.376-2.894-2.545-1.365-5.08-2.752l-2.277-1.219-2.014-1.092L762 3373l-2 1c4.378 4.483 8.814 8.83 13.57 12.91a492 492 0 0 1 5.672 4.961c8.642 7.63 17.587 14.73 26.803 21.65a361 361 0 0 1 5.217 4.026c69.678 54.6 153.805 92.75 655.967 138.79 83.75-10.22 167.002-25.03 531.234-110.684l7.556-1.945q28.496-7.333 56.981-14.708c-1.914-4.374-4.827-6.162-8.812-8.562l-2.148-1.312c-17.95-10.793-36.987-19.493-56.04-28.126l-3.333-1.518c-11.153-5.065-22.349-9.894-33.854-14.107l-2.736-1.003c-7.986-2.845-13.56-3.626-21.788-1.508M701 3350c.55 3.816 1.526 6.155 3.844 9.223l1.764 2.362 1.892 2.477 1.933 2.573q1.91 2.541 3.831 5.074 2.155 2.845 4.279 5.713c10.621 14.317 21.823 28.175 33.378 41.747a443 443 0 0 1 8.391 10.206c4.286 5.273 8.881 10.219 13.553 15.148 2.927 3.091 5.8 6.212 8.592 9.426 3.607 4.15 7.333 8.176 11.106 12.176l2.09 2.216c12.616 13.37 12.616 13.37 26.171 25.764 2.442 2.127 4.797 4.332 7.156 6.55A332 332 0 0 0 849 3518q1.788 1.471 3.57 2.95c26.843 22.18 56.045 42.04 86.43 59.05l2.753 1.553c71.492 40.158 150.462 66.095 231.247 79.447l2.403.398c56.04 9.249 112.31 13.216 169.096 12.989q4.792-.018 9.586-.025c31.357-.067 62.59-.536 93.858-3.112 3.183-.26 6.367-.508 9.55-.754 90.917-7.094 181.085-21.849 373.507-62.496l2.074-.478c50.98-11.76 101.693-24.642 152.438-37.374l3.548-.89 32.4-8.132c51.56-12.951 51.56-12.951 75.81-18.594 64.028-10.16 64.028-10.16 120.73-35.532.04-2 .043-4 0-6-25.775-13.001-25.775-13.001-51.767-25.56-6.582-3.122-13.102-6.362-19.612-9.631l-2.829-1.42q-7.08-3.555-14.15-7.13-2.643-1.332-5.287-2.661l-2.406-1.224a186 186 0 0 0-4.658-2.259c-2.291-1.115-2.291-1.115-4.416-2.45-8.903-4.895-18.137-.735-27.227 1.886q-2.874.792-5.751 1.575a1844 1844 0 0 0-15.345 4.291c-5.324 1.5-10.658 2.964-15.991 4.43a7233 7233 0 0 0-25.246 7.004 3262 3262 0 0 1-37.607 10.232q-4.85 1.293-9.697 2.59c-74.896 20.032-149.99 39.462-595.116 112.565l-2.927.192a914 914 0 0 1-55.113 1.773l-6.153.021c-6.505.02-13.01.025-19.514.026l-3.358.001c-32.704.007-65.247-.148-97.83-3.251l-2.86-.264c-67.407-6.228-133.862-18.228-198.14-39.736l-3.96-1.315c-38.652-12.893-76.403-29.646-111.563-50.24a504 504 0 0 0-6.727-3.847C852.253 3484.959 832.713 3471.3 814 3457l-1.93-1.47c-12.527-9.584-24.42-19.901-36.07-30.53l-2.965-2.684c-8.153-7.398-16.051-14.919-23.222-23.285-2.67-2.99-5.53-5.772-8.407-8.562-1.956-2.007-3.781-4.042-5.606-6.164-3.523-4.04-7.215-7.866-11.01-11.649l-1.982-1.983q-2.047-2.048-4.099-4.094a3183 3183 0 0 1-6.299-6.306l-3.996-3.992-1.906-1.912c-2.38-2.964-2.38-2.964-5.508-4.369m-1-1445 159.375-.125 50.162-.055c20.349-.01 20.349-.01 29.902-.01q9.92-.005 19.843-.021 11.49-.02 22.98-.016 5.856.004 11.712-.011c15.75-.043 31.433.22 47.16 1.143l2.096.12c52.102 3.082 109.456 14.474 149.77 49.975l2.613 2.281A419 419 0 0 1 1203 1965l2.05 1.887c14.68 14.032 25.28 32.049 31.95 51.113l1.145 3.227c12.766 38.537 8.846 84.075-9.267 120.222-7.14 13.768-16.141 25.424-26.878 36.551l-2.016 2.172c-8.568 9-18.753 15.95-29.402 22.234-2.626 1.484-2.626 1.484-4.582 3.594.558.23 1.115.461 1.69.7 24.372 10.134 45.317 21.706 64.31 40.3l2.227 2.074c26.567 25.244 40.616 63.338 41.899 99.475.838 42.473-6.274 81.682-35.126 114.451l-2.398 2.8c-5.69 6.489-11.776 11.939-18.602 17.2l-2.625 2.137c-33.554 26.547-76.806 37.916-118.375 44.05l-3.156.47c-22.686 3.159-45.276 3.632-68.134 3.575-4.475-.009-8.95-.006-13.425-.004q-12.977 0-25.952-.021c-10.026-.015-20.051-.016-30.077-.018-26.419-.01-52.837-.038-79.256-.064L700 2533zm145 111v146c28.991.088 28.991.088 57.982.146 11.837.018 23.674.039 35.51.08q12.937.046 25.873.056 6.836.004 13.672.035c36.108.168 74.727-.72 102.678-26.942 12.948-13.457 17.667-31.149 17.437-49.426-.754-14.596-4.615-27.07-13.152-38.949l-1.328-1.926c-14.09-18.461-41.406-24.881-63.047-28.09-14.97-1.918-30.21-1.361-45.275-1.288-4.596.019-9.192.02-13.789.024q-13.003.017-26.007.064c-11.739.04-23.478.056-35.217.073-18.446.029-36.891.088-55.337.143m0 253v154c33.208.088 33.208.088 66.416.146 13.557.018 27.115.039 40.672.08q14.815.046 29.632.056 7.83.004 15.661.035c30.448.326 30.448.326 60.619-3.317l2.427-.468c22.633-4.465 44.828-13.876 58.565-33.227 11.06-18.204 12.72-40.371 7.98-60.875-5.544-19.551-17.032-31.89-34.37-41.801-31.46-16.775-69.27-14.933-103.786-14.832-5.07.013-10.14.014-15.21.016-9.565.006-19.13.023-28.695.043-12.951.027-25.902.037-38.853.049-20.352.019-40.705.059-61.058.095m2256.376-374.316q4.102.007 8.205-.02c26.154-.173 51.932 1.597 77.732 6.149l2.25.387c44.647 7.698 89.088 20.885 128.437 43.8l1.852 1.059c3.934 2.396 3.934 2.396 4.886 4.823.307 2.478-.065 3.662-1.051 5.941l-.96 2.265-1.082 2.459-1.119 2.616c-1.228 2.867-2.47 5.727-3.713 8.587q-1.952 4.545-3.897 9.095-1.359 3.174-2.722 6.346c-5.097 11.876-10.053 23.81-15.006 35.747q-2.446 5.89-4.895 11.777l-1.135 2.728A1717 1717 0 0 1 3280 2060c-3.667-.585-6.461-1.589-9.71-3.371l-2.738-1.476-2.927-1.59c-25.42-13.522-51.787-23.36-79.625-30.563l-2.809-.727c-25.114-6.374-50.8-9.5-76.691-9.46l-2.259.001c-33.393.074-72.963 3.601-98.241 28.186-11.698 12.225-16.838 27.281-17 44 1.094 14.332 6.607 25.027 16.875 34.938 15.699 13.293 35.243 20.01 54.773 25.433l3.274.912c10.45 2.876 20.97 5.417 31.53 7.858 3.289.76 6.576 1.529 9.862 2.298a3599 3599 0 0 0 30.428 6.983c60.565 13.622 126.384 30.673 173.258 73.578l2.031 1.816c26.762 25.184 40.469 61.715 42.137 97.83 1.418 47.004-10.783 91.485-42.168 127.354l-1.383 1.586c-6.664 7.591-13.588 14.242-21.617 20.414l-2.945 2.387c-20.893 16.677-44.993 28.625-70.055 37.613l-2.436.875c-18.492 6.508-37.842 10.424-57.189 13.375l-2.95.458c-21.34 3.053-42.772 3.668-64.3 3.605l-3.906-.006c-20.561-.049-40.82-.705-61.219-3.307l-2.014-.25c-48.788-6.064-97.564-18.448-141.986-39.75l-2.182-1.043C2841.39 2483.39 2841.39 2483.39 2830 2472c.344-4.338 1.623-7.79 3.484-11.691l1.564-3.314 1.702-3.557q1.803-3.821 3.598-7.645l.93-1.974c3.05-6.487 5.99-13.022 8.91-19.569l4.036-9.036q5.549-12.422 11.128-24.83 1.2-2.672 2.397-5.344 1.688-3.765 3.38-7.528l1.005-2.247c2.17-4.82 4.476-9.55 6.866-14.265l1.703 1.11c75.536 48.657 170.342 77.627 260.32 59.053 20.983-4.67 43.18-13.14 56.172-31.218 8.047-13.231 10.96-27.3 7.493-42.543-4.692-16.393-15.668-26.267-30.063-34.464-35.392-19.37-78.061-26.304-116.969-35.356-152.63-35.523-152.63-35.523-192.656-99.582-24.19-38.958-27.194-87.535-17.408-131.619 7.344-30.899 23.292-58.768 45.408-81.381l2.156-2.344c38.97-41.368 101.2-59.638 155.844-65.656l2.342-.264c16-1.752 31.953-2.081 48.034-2.052m-1514.711 148.254c71.765-1.444 140.023 19.815 192.335 70.062l2.719 2.594c5.914 5.768 11.255 11.853 16.281 18.406l1.449 1.873c13.636 17.78 24.755 37.1 32.551 58.127l.928 2.49c10.68 29.122 15.26 59.933 15.257 90.87.002 2.476.02 4.952.04 7.43.015 12.63-1.07 24.5-2.225 37.21h-365c12.267 35.049 30.06 63.255 64 80 41.319 18.717 93.717 21.036 136.438 5.188 20.986-8.244 40.82-19.893 56.562-36.188 3.158 1.386 5.167 2.97 7.504 5.492.652.7 1.305 1.398 1.977 2.118l2.082 2.265 2.163 2.327q3.144 3.392 6.274 6.798l1.626 1.765q3.378 3.666 6.737 7.348a2233 2233 0 0 0 8.575 9.325l1.512 1.637 3.034 3.284q4.506 4.878 9.01 9.76 3.803 4.121 7.611 8.236c6.017 6.503 11.99 13.04 17.895 19.645-1.485 5.163-4.692 8.114-8.437 11.75l-1.917 1.88c-5.294 5.137-10.75 9.93-16.646 14.37l-1.79 1.35c-63.083 47.116-145.844 58.114-222.37 47.326-65.707-9.58-130.221-39.451-171.84-92.676l-2.355-2.875c-40.45-50.417-54.025-117.918-47.7-181.202 6.01-51.413 25.87-100.291 61.547-138.204a131 131 0 0 0 5.113-5.867c1.875-2.233 3.621-4.108 5.833-5.977a289 289 0 0 0 7.453-6.496c44.638-40.139 106.458-60.06 165.774-61.441m-80.258 145.453c-15.397 17.614-22.558 37.98-27.407 60.609h236c-1.655-11.19-1.655-11.19-4.625-21.875l-.782-2.291c-9.979-28.092-31.247-51.137-57.968-64.084-48.996-21.362-108.681-12.376-145.218 27.64M4954 2089l2.207 1.836c4.763 4.025 8.825 8.362 12.793 13.164l1.28 1.498c39.103 45.785 46.925 103.871 46.836 162.046q-.005 5.357-.002 10.715 0 9.255-.008 18.51-.011 13.38-.012 26.762-.004 21.716-.019 43.432-.014 21.08-.02 42.16v2.657l-.007 20.576c-.01 33.548-.03 67.096-.048 100.644h-141l-.148-58.43a164419 164419 0 0 0-.17-55.938l-.007-2.439q-.059-19.446-.102-38.892-.047-19.985-.116-39.969-.043-12.312-.064-24.625-.016-8.465-.052-16.93-.02-4.87-.025-9.74c-.033-34.376-2.906-70.392-28.347-96.252-19.147-18.48-45.849-24.323-71.688-23.937-29.424.815-57.296 11.303-78.968 31.402-22.841 24.198-31.438 57.15-31.471 89.71l-.015 3.205q-.021 5.28-.032 10.562l-.03 7.6q-.032 8.163-.056 16.326-.035 11.8-.08 23.603-.071 19.15-.132 38.3-.059 18.595-.125 37.191l-.008 2.342-.065 18.134c-.106 29.592-.202 59.185-.299 88.777h-141v-483h135l1 54 7-7c3.571-3.12 7.29-6.047 11-9l2.86-2.375c30.723-24.834 71.146-38.046 110.14-41.625l3.504-.336c56.941-4.625 116.394 7.412 160.496 45.336m-690-33 2.541.772c25.954 8.066 49.628 20.835 70.459 38.228l2.625 2.191c4.927 4.253 9.26 8.773 13.375 13.809l1.227 1.476c24.96 30.152 36.652 66.548 41.523 105.024l.35 2.722c2.352 20.57 2.044 41.445 2.014 62.114v8.257q0 8.807-.008 17.614-.011 12.734-.012 25.466-.004 20.67-.019 41.34-.014 20.051-.02 40.104v2.531l-.007 19.608c-.01 31.915-.03 63.83-.048 95.744h-132l-1-56-9 12c-28.715 34.076-71.135 47.446-114.168 51.402-3.944.294-7.88.49-11.832.598l-2.417.066c-54.466 1.238-108.23-11.417-148.923-49.361-17.758-17.205-30.702-39.709-36.66-63.705l-.906-3.648c-8.163-37.433-.302-76.629 20.023-108.692 9.293-13.063 21.21-24.335 34.883-32.66l1.814-1.115c10.575-6.433 21.619-11.504 33.186-15.885l2.195-.832c39.393-14.5 83.143-15.358 124.58-15.27 3.503.007 7.006.007 10.51.009q9.895.005 19.791.021 11.29.015 22.579.022 23.172.016 46.345.05c-.446-3.812-.903-7.623-1.363-11.434l-.378-3.238c-2.77-22.752-11.527-43.502-29.884-58.078-21.525-15.194-46.423-20.325-72.375-21.25l-3.195-.125c-25.618-.494-51.315 3.788-75.805 11.125l-2.331.697c-20.219 6.208-40.132 15.277-57.29 27.696l-2 1.439-1.701 1.273C4009 2199 4009 2199 4005 2199c-9.244-17.51-18.228-35.15-27.118-52.842a3521 3521 0 0 0-6.236-12.358 2753 2753 0 0 1-6.13-12.159 945 945 0 0 0-2.321-4.587 810 810 0 0 1-3.194-6.356l-.974-1.887c-1.216-2.474-2.06-4.31-1.877-7.095 1.48-2.989 4.304-4.473 7.037-6.216l2.003-1.297c49.04-31.174 108.137-46.353 165.81-50.203q2.104-.164 4.207-.332c42.49-3.109 86.897-.176 127.793 12.332m-175.742 297.371c-10.134 11.8-13.426 25.404-12.438 40.65 1.286 14.127 7.91 25.529 18.6 34.72 21.052 16.777 49.826 18.902 75.614 16.31 15.19-1.718 29.322-6.231 42.966-13.051l3.238-1.617c8.032-4.354 14.345-9.975 20.762-16.383l1.992-1.957c3.852-4.074 6.783-8.653 9.695-13.418.37-.6.738-1.2 1.118-1.82 5.375-9.09 7.8-16.9 7.586-27.5l-.018-3.253c-.022-3.393-.072-6.785-.123-10.177a4309 4309 0 0 1-.055-6.945q-.067-8.466-.195-16.93-21.53-.106-43.06-.155-10-.022-20.002-.071-9.677-.047-19.354-.059-3.666-.008-7.33-.032c-27.86-.18-58.53.163-78.996 21.688M2221 2056l2.541.772c25.954 8.066 49.628 20.835 70.459 38.228l2.625 2.191c4.927 4.253 9.26 8.773 13.375 13.809l1.227 1.476c24.96 30.152 36.652 66.548 41.523 105.024l.35 2.722c2.352 20.57 2.044 41.445 2.014 62.114v8.257q0 8.807-.008 17.614-.011 12.734-.012 25.466-.004 20.67-.019 41.34-.014 20.051-.02 40.104v2.531l-.007 19.608c-.01 31.915-.03 63.83-.048 95.744h-132l-1-56-9 12c-28.715 34.076-71.135 47.446-114.168 51.402-3.944.294-7.88.49-11.832.598l-2.417.066c-54.466 1.238-108.23-11.417-148.923-49.361-17.758-17.205-30.702-39.709-36.66-63.705l-.906-3.648c-8.163-37.433-.302-76.629 20.023-108.692 9.293-13.063 21.21-24.335 34.883-32.66l1.814-1.115c10.575-6.433 21.619-11.504 33.186-15.885l2.195-.832c39.393-14.5 83.143-15.358 124.58-15.27 3.503.007 7.006.007 10.51.009q9.895.005 19.791.021 11.29.015 22.579.022 23.173.016 46.345.05-.671-5.718-1.363-11.434l-.378-3.238c-2.77-22.752-11.527-43.502-29.884-58.078-21.525-15.194-46.423-20.325-72.375-21.25l-3.195-.125c-25.618-.494-51.315 3.788-75.805 11.125l-2.331.697c-20.219 6.208-40.132 15.277-57.29 27.696l-2 1.439-1.701 1.273C1966 2199 1966 2199 1962 2199c-9.244-17.51-18.228-35.15-27.118-52.842a3521 3521 0 0 0-6.236-12.358 2753 2753 0 0 1-6.13-12.159 945 945 0 0 0-2.321-4.587 810 810 0 0 1-3.194-6.356l-.974-1.887c-1.216-2.474-2.06-4.31-1.877-7.095 1.48-2.989 4.304-4.473 7.037-6.216l2.003-1.297c49.04-31.174 108.137-46.353 165.81-50.203q2.103-.164 4.207-.332c42.49-3.109 86.897-.176 127.793 12.332m-175.742 297.371c-10.134 11.8-13.426 25.404-12.438 40.65 1.286 14.127 7.91 25.529 18.6 34.72 21.052 16.777 49.826 18.902 75.614 16.31 15.19-1.718 29.322-6.231 42.966-13.051l3.238-1.617c8.032-4.354 14.345-9.975 20.762-16.383l1.992-1.957c3.852-4.074 6.783-8.653 9.695-13.418.37-.6.738-1.2 1.118-1.82 5.375-9.09 7.8-16.9 7.586-27.5l-.018-3.253c-.022-3.393-.072-6.785-.123-10.177a4309 4309 0 0 1-.055-6.945q-.067-8.466-.195-16.93-21.53-.106-43.06-.155-10-.022-20.002-.071-9.677-.047-19.354-.059-3.666-.008-7.33-.032c-27.86-.18-58.53.163-78.996 21.688M3839 2096l2.434 2.102c2.56 2.26 5.07 4.566 7.566 6.898l2.617 2.418c12.308 11.79 22.214 25.665 30.383 40.582l1.187 2.142c1.19 2.17 2.35 4.354 3.5 6.546l1.103 2.035c.972 1.914.972 1.914 2.21 5.277-.814 2.41-1.54 3.666-3.606 5.166l-1.937.955-2.217 1.124-2.427 1.193a1587 1587 0 0 0-5.235 2.671l-2.78 1.424c-4.645 2.435-9.185 5.047-13.735 7.655-8.719 4.974-17.518 9.78-26.376 14.5-7.84 4.178-15.674 8.365-23.437 12.687l-2.119 1.176a521 521 0 0 0-10.639 6.094l-2.223 1.293q-2.083 1.214-4.147 2.46c-2.43 1.41-4.466 2.56-7.302 2.743-2.927-1.835-4.359-4.67-6.07-7.579q-1.2-1.939-2.41-3.87l-1.204-1.922c-16.394-25.54-42.861-41.908-72.027-48.672-31.861-6.6-67.752-1.381-95.359 16.277-28.59 18.842-46.674 46.294-53.585 79.71-7.191 38.79-2.269 81.229 20.093 114.356A150 150 0 0 0 3578 2382c.842 1.004 1.684 2.008 2.55 3.043 20.37 23.602 50.713 36.454 81.45 38.957 34.799 1.701 66.578-7.163 92.832-30.52 10.426-9.948 19.246-21.85 26.168-34.48 4.216.602 7.288 2.06 10.988 4.14l1.732.966c1.868 1.042 3.73 2.093 5.593 3.144q2.945 1.646 5.892 3.289l3.99 2.228c6.133 3.427 12.307 6.776 18.492 10.108 7.381 3.985 14.743 8 22.066 12.092 4.877 2.722 9.767 5.419 14.665 8.103l5.97 3.278q1.972 1.081 3.947 2.16 2.784 1.522 5.563 3.05l3.271 1.791A57 57 0 0 1 3890 2418c-5.585 18.827-18.39 36.571-31.785 50.664-1.925 2.03-3.695 4.11-5.465 6.273-35.791 40.988-97.418 60.903-149.75 65.063l-2.036.17c-40.198 3.262-81.332-.51-119.964-12.17l-2.748-.822c-30.443-9.32-59.874-24.675-84.252-45.178l-3.473-2.86c-12.323-10.251-23.783-21.38-33.527-34.14l-1.251-1.61c-41.183-53.163-55.844-119.995-48.23-186.195 6.304-48.692 26.087-92.45 59.192-128.683a377 377 0 0 0 4.578-5.117c4.612-5.239 9.348-9.938 14.711-14.395l2.57-2.23c72.56-62.18 179.53-78.788 350.43-10.77m-1342-152h142v106h119v109h-119c.062 38.331.062 38.331.16 76.662.049 15.639.093 31.277.111 46.916q.019 17.087.084 34.173c.022 6.027.038 12.053.037 18.079q0 8.526.05 17.052.012 3.111.004 6.224c-.047 20.039 2.083 39.81 16.554 55.12 13.156 11.666 29.594 15.434 46.813 14.649 15.852-1.025 33.007-4.966 45.96-14.598C2752 2411 2752 2411 2755 2411l.652 1.76q3.491 9.435 6.984 18.869l4.086 11.04a8337 8337 0 0 0 13.169 35.386l2.238 5.975q1.581 4.225 3.173 8.445 1.456 3.86 2.901 7.724l.868 2.284c1.111 2.98 1.929 5.308 1.929 8.517-24.139 18.933-58.22 26.246-88 29l-3.57.336c-51.64 4.127-109.405-3.972-150.028-38.547A286 286 0 0 1 2542 2495l-2.492-2.297c-29.269-27.9-41.592-71.544-42.565-111.017-.09-6.605-.068-13.21-.057-19.816v-6.656q.001-8.983.013-17.966.007-9.408.008-18.814.004-15.773.018-31.545.014-16.236.02-32.473v-2.026l.005-10.065q.016-41.663.05-83.325h-74v-109h74z"/></svg>